# MagicaVoxel @ Ephtracy

# group
o 

# material
mtllib WallFloorCornerTile.mtl
usemtl palette

# normals
vn -1 0 0
vn 1 0 0
vn 0 0 1
vn 0 0 -1
vn 0 -1 0
vn 0 1 0

# texcoords
vt 0.958984 0.5
vt 0.974609 0.5
vt 0.986328 0.5
vt 0.990234 0.5

# verts
v -6.4 0 6.4
v -6.4 0 -6.4
v -6.4 12.8 6.4
v -6.4 12.8 -6.4
v -6.2 0.6 6.2
v -6.2 0.6 -5.8
v -6.2 0.9 5.9
v -6.2 0.9 -5.5
v -6.2 12.3 5.9
v -6.2 12.3 -5.5
v -6.2 12.6 6.2
v -6.2 12.6 -5.8
v -6.1 0.4 6.3
v -6.1 0.4 -6
v -6.1 0.6 6.2
v -6.1 0.6 -5.8
v -6.1 0.9 5.9
v -6.1 0.9 -5.5
v -6.1 12.3 5.9
v -6.1 12.3 -5.5
v -6.1 12.6 6.2
v -6.1 12.6 -5.8
v -6.1 12.7 6.3
v -6.1 12.7 -6
v -6 0.3 6.3
v -6 0.3 -6
v -6 0.4 6.3
v -6 0.4 -6
v -6 0.4 -6.1
v -6 12.7 -6
v -6 12.7 -6.1
v -5.8 0.2 6.2
v -5.8 0.2 -5.9
v -5.8 0.3 6.2
v -5.8 0.3 -5.9
v -5.8 0.6 -6.1
v -5.8 0.6 -6.2
v -5.8 12.6 -6.1
v -5.8 12.6 -6.2
v -5.5 0.3 5.9
v -5.5 0.3 -5.6
v -5.5 0.4 5.9
v -5.5 0.4 -5.6
v -5.5 0.9 -6
v -5.5 0.9 -6.1
v -5.5 12.3 -6
v -5.5 12.3 -6.1
v 5.9 0.2 5.9
v 5.9 0.2 -5.6
v 5.9 0.3 5.9
v 5.9 0.3 -5.6
v 5.9 0.9 -6.1
v 5.9 0.9 -6.2
v 5.9 12.3 -6.1
v 5.9 12.3 -6.2
v 6.2 0.3 6.2
v 6.2 0.3 -5.9
v 6.2 0.4 6.2
v 6.2 0.4 -5.9
v 6.2 0.6 -6
v 6.2 0.6 -6.1
v 6.2 12.6 -6
v 6.2 12.6 -6.1
v 6.3 0.1 6.3
v 6.3 0.1 -6
v 6.3 0.1 -6.1
v 6.3 0.1 -6.3
v 6.3 0.3 6.3
v 6.3 0.3 -6
v 6.3 0.4 -6
v 6.3 0.4 -6.1
v 6.3 12.7 -6.1
v 6.3 12.7 -6.3
v -6.3 0.1 6.3
v -6.3 0.1 -6.3
v -6.3 12.7 6.3
v -6.3 12.7 -6.3
v -6.1 0.6 6.2
v -6.1 0.6 -5.8
v -6.1 0.9 5.9
v -6.1 0.9 -5.5
v -6.1 12.3 5.9
v -6.1 12.3 -5.5
v -6.1 12.6 6.2
v -6.1 12.6 -5.8
v -6 0.4 6.4
v -6 0.4 -6
v -6 0.6 6.2
v -6 0.6 -5.8
v -6 0.9 5.9
v -6 0.9 -5.5
v -6 12.3 5.9
v -6 12.3 -5.5
v -6 12.6 6.2
v -6 12.6 -5.8
v -6 12.8 6.4
v -6 12.8 -6
v -5.8 0.3 6.2
v -5.8 0.3 -5.9
v -5.8 0.4 6.2
v -5.8 0.4 -5.9
v -5.8 0.6 -6
v -5.8 0.6 -6.1
v -5.8 12.6 -6
v -5.8 12.6 -6.1
v -5.5 0.2 5.9
v -5.5 0.2 -5.6
v -5.5 0.3 5.9
v -5.5 0.3 -5.6
v -5.5 0.9 -6.1
v -5.5 0.9 -6.2
v -5.5 12.3 -6.1
v -5.5 12.3 -6.2
v 5.9 0.3 5.9
v 5.9 0.3 -5.6
v 5.9 0.4 5.9
v 5.9 0.4 -5.6
v 5.9 0.9 -6
v 5.9 0.9 -6.1
v 5.9 12.3 -6
v 5.9 12.3 -6.1
v 6.2 0.2 6.2
v 6.2 0.2 -5.9
v 6.2 0.3 6.2
v 6.2 0.3 -5.9
v 6.2 0.6 -6.1
v 6.2 0.6 -6.2
v 6.2 12.6 -6.1
v 6.2 12.6 -6.2
v 6.4 0 6.4
v 6.4 0 -6.4
v 6.4 0.3 6.4
v 6.4 0.3 -6
v 6.4 0.4 6.4
v 6.4 0.4 -6
v 6.4 0.4 -6.1
v 6.4 12.8 -6
v 6.4 12.8 -6.1
v 6.4 12.8 -6.4
v -6.4 0 6.4
v -6.4 12.8 6.4
v -6.1 0.3 6.4
v -6.1 12.8 6.4
v -6 0.4 6.4
v -6 12.8 6.4
v 6.4 0 6.4
v 6.4 0.3 6.4
v 6.4 0.4 6.4
v -6.2 0.6 6.2
v -6.2 12.6 6.2
v -6.1 0.6 6.2
v -6.1 12.6 6.2
v -5.8 0.2 6.2
v -5.8 0.3 6.2
v 6.2 0.2 6.2
v 6.2 0.3 6.2
v -6.1 0.9 5.9
v -6.1 12.3 5.9
v -6 0.9 5.9
v -6 12.3 5.9
v -5.5 0.3 5.9
v -5.5 0.4 5.9
v 5.9 0.3 5.9
v 5.9 0.4 5.9
v -6.2 0.9 -5.5
v -6.2 12.3 -5.5
v -6.1 0.9 -5.5
v -6.1 12.3 -5.5
v -5.5 0.2 -5.6
v -5.5 0.3 -5.6
v 5.9 0.2 -5.6
v 5.9 0.3 -5.6
v -6.1 0.6 -5.8
v -6.1 12.6 -5.8
v -6 0.6 -5.8
v -6 12.6 -5.8
v -5.8 0.3 -5.9
v -5.8 0.4 -5.9
v 6.2 0.3 -5.9
v 6.2 0.4 -5.9
v -6 0.4 -6
v -6 12.8 -6
v -5.8 0.6 -6
v -5.8 12.6 -6
v -5.5 0.9 -6
v -5.5 12.3 -6
v 5.9 0.9 -6
v 5.9 12.3 -6
v 6.2 0.6 -6
v 6.2 12.6 -6
v 6.4 0.4 -6
v 6.4 12.8 -6
v -5.8 0.6 -6.1
v -5.8 12.6 -6.1
v -5.5 0.9 -6.1
v -5.5 12.3 -6.1
v 5.9 0.9 -6.1
v 5.9 12.3 -6.1
v 6.2 0.6 -6.1
v 6.2 12.6 -6.1
v -6.3 0.1 -6.3
v -6.3 12.7 -6.3
v 6.3 0.1 -6.3
v 6.3 12.7 -6.3
v -6.3 0.1 6.3
v -6.3 12.7 6.3
v -6.1 0.1 6.3
v -6.1 0.3 6.3
v -6.1 0.4 6.3
v -6.1 12.7 6.3
v -6 0.1 6.3
v -6 0.3 6.3
v -6 0.4 6.3
v 6.3 0.1 6.3
v 6.3 0.3 6.3
v -6.1 0.6 6.2
v -6.1 12.6 6.2
v -6 0.6 6.2
v -6 12.6 6.2
v -5.8 0.3 6.2
v -5.8 0.4 6.2
v 6.2 0.3 6.2
v 6.2 0.4 6.2
v -6.2 0.9 5.9
v -6.2 12.3 5.9
v -6.1 0.9 5.9
v -6.1 12.3 5.9
v -5.5 0.2 5.9
v -5.5 0.3 5.9
v 5.9 0.2 5.9
v 5.9 0.3 5.9
v -6.1 0.9 -5.5
v -6.1 12.3 -5.5
v -6 0.9 -5.5
v -6 12.3 -5.5
v -5.5 0.3 -5.6
v -5.5 0.4 -5.6
v 5.9 0.3 -5.6
v 5.9 0.4 -5.6
v -6.2 0.6 -5.8
v -6.2 12.6 -5.8
v -6.1 0.6 -5.8
v -6.1 12.6 -5.8
v -5.8 0.2 -5.9
v -5.8 0.3 -5.9
v 6.2 0.2 -5.9
v 6.2 0.3 -5.9
v -6.1 0.4 -6
v -6.1 12.7 -6
v -6 0.3 -6
v -6 0.4 -6
v -6 12.7 -6
v 6.3 0.3 -6
v 6.3 0.4 -6
v -6 0.4 -6.1
v -6 12.7 -6.1
v -5.8 0.6 -6.1
v -5.8 12.6 -6.1
v -5.5 0.9 -6.1
v -5.5 12.3 -6.1
v 5.9 0.9 -6.1
v 5.9 12.3 -6.1
v 6.2 0.6 -6.1
v 6.2 12.6 -6.1
v 6.3 0.4 -6.1
v 6.3 12.7 -6.1
v -5.8 0.6 -6.2
v -5.8 12.6 -6.2
v -5.5 0.9 -6.2
v -5.5 12.3 -6.2
v 5.9 0.9 -6.2
v 5.9 12.3 -6.2
v 6.2 0.6 -6.2
v 6.2 12.6 -6.2
v -6.4 0 -6.4
v -6.4 12.8 -6.4
v 6.4 0 -6.4
v 6.4 12.8 -6.4
v -6.4 0 6.4
v 6.4 0 6.4
v -6.1 0 6.3
v -6 0 6.3
v -6.1 0 -6
v -6 0 -6
v 6.3 0 -6
v -6 0 -6.1
v 6.3 0 -6.1
v -6.4 0 -6.4
v 6.4 0 -6.4
v -5.8 0.2 6.2
v 6.2 0.2 6.2
v -5.5 0.2 5.9
v 5.9 0.2 5.9
v -5.5 0.2 -5.6
v 5.9 0.2 -5.6
v -5.8 0.2 -5.9
v 6.2 0.2 -5.9
v -6 0.3 6.3
v 6.3 0.3 6.3
v -5.8 0.3 6.2
v 6.2 0.3 6.2
v -5.5 0.3 5.9
v 5.9 0.3 5.9
v -5.5 0.3 -5.6
v 5.9 0.3 -5.6
v -5.8 0.3 -5.9
v 6.2 0.3 -5.9
v -6 0.3 -6
v 6.3 0.3 -6
v -6.1 0.4 6.3
v -6 0.4 6.3
v -6.1 0.4 -6
v -6 0.4 -6
v 6.3 0.4 -6
v -6 0.4 -6.1
v 6.3 0.4 -6.1
v -6.2 0.6 6.2
v -6.1 0.6 6.2
v -6.2 0.6 -5.8
v -6.1 0.6 -5.8
v -5.8 0.6 -6.1
v 6.2 0.6 -6.1
v -5.8 0.6 -6.2
v 6.2 0.6 -6.2
v -6.1 0.9 5.9
v -6 0.9 5.9
v -6.1 0.9 -5.5
v -6 0.9 -5.5
v -5.5 0.9 -6
v 5.9 0.9 -6
v -5.5 0.9 -6.1
v 5.9 0.9 -6.1
v -6.2 12.3 5.9
v -6.1 12.3 5.9
v -6.2 12.3 -5.5
v -6.1 12.3 -5.5
v -5.5 12.3 -6.1
v 5.9 12.3 -6.1
v -5.5 12.3 -6.2
v 5.9 12.3 -6.2
v -6.1 12.6 6.2
v -6 12.6 6.2
v -6.1 12.6 -5.8
v -6 12.6 -5.8
v -5.8 12.6 -6
v 6.2 12.6 -6
v -5.8 12.6 -6.1
v 6.2 12.6 -6.1
v -6.3 12.7 6.3
v -6.1 12.7 6.3
v -6.1 12.7 -6
v -6 12.7 -6
v -6.1 12.7 -6.1
v -6 12.7 -6.1
v 6.3 12.7 -6.1
v -6.3 12.7 -6.3
v 6.3 12.7 -6.3
v -6.3 0.1 6.3
v -6.1 0.1 6.3
v -6 0.1 6.3
v 6.3 0.1 6.3
v -6.1 0.1 -6
v -6 0.1 -6
v 6.3 0.1 -6
v -6 0.1 -6.1
v 6.3 0.1 -6.1
v -6.3 0.1 -6.3
v 6.3 0.1 -6.3
v -5.8 0.3 6.2
v 6.2 0.3 6.2
v -5.5 0.3 5.9
v 5.9 0.3 5.9
v -5.5 0.3 -5.6
v 5.9 0.3 -5.6
v -5.8 0.3 -5.9
v 6.2 0.3 -5.9
v -6 0.4 6.4
v 6.4 0.4 6.4
v -5.8 0.4 6.2
v 6.2 0.4 6.2
v -5.5 0.4 5.9
v 5.9 0.4 5.9
v -5.5 0.4 -5.6
v 5.9 0.4 -5.6
v -5.8 0.4 -5.9
v 6.2 0.4 -5.9
v -6 0.4 -6
v 6.4 0.4 -6
v -6.1 0.6 6.2
v -6 0.6 6.2
v -6.1 0.6 -5.8
v -6 0.6 -5.8
v -5.8 0.6 -6
v 6.2 0.6 -6
v -5.8 0.6 -6.1
v 6.2 0.6 -6.1
v -6.2 0.9 5.9
v -6.1 0.9 5.9
v -6.2 0.9 -5.5
v -6.1 0.9 -5.5
v -5.5 0.9 -6.1
v 5.9 0.9 -6.1
v -5.5 0.9 -6.2
v 5.9 0.9 -6.2
v -6.1 12.3 5.9
v -6 12.3 5.9
v -6.1 12.3 -5.5
v -6 12.3 -5.5
v -5.5 12.3 -6
v 5.9 12.3 -6
v -5.5 12.3 -6.1
v 5.9 12.3 -6.1
v -6.2 12.6 6.2
v -6.1 12.6 6.2
v -6.2 12.6 -5.8
v -6.1 12.6 -5.8
v -5.8 12.6 -6.1
v 6.2 12.6 -6.1
v -5.8 12.6 -6.2
v 6.2 12.6 -6.2
v -6.4 12.8 6.4
v -6.1 12.8 6.4
v -6 12.8 6.4
v -6 12.8 -6
v 6.4 12.8 -6
v -6.1 12.8 -6.1
v 6.4 12.8 -6.1
v -6.4 12.8 -6.4
v 6.4 12.8 -6.4

# faces
f 3/3/1 2/3/1 1/3/1
f 4/3/1 2/3/1 3/3/1
f 7/1/1 6/1/1 5/1/1
f 8/1/1 6/1/1 7/1/1
f 9/1/1 7/1/1 5/1/1
f 10/1/1 6/1/1 8/1/1
f 11/1/1 9/1/1 5/1/1
f 11/1/1 10/1/1 9/1/1
f 12/1/1 6/1/1 10/1/1
f 12/1/1 10/1/1 11/1/1
f 15/4/1 14/4/1 13/4/1
f 16/4/1 14/4/1 15/4/1
f 19/2/1 18/2/1 17/2/1
f 20/2/1 18/2/1 19/2/1
f 21/4/1 15/4/1 13/4/1
f 22/4/1 14/4/1 16/4/1
f 23/4/1 21/4/1 13/4/1
f 23/4/1 22/4/1 21/4/1
f 24/4/1 14/4/1 22/4/1
f 24/4/1 22/4/1 23/4/1
f 27/4/1 26/4/1 25/4/1
f 28/4/1 26/4/1 27/4/1
f 30/4/1 29/4/1 28/4/1
f 31/4/1 29/4/1 30/4/1
f 34/1/1 33/1/1 32/1/1
f 35/1/1 33/1/1 34/1/1
f 38/1/1 37/1/1 36/1/1
f 39/1/1 37/1/1 38/1/1
f 42/2/1 41/2/1 40/2/1
f 43/2/1 41/2/1 42/2/1
f 46/2/1 45/2/1 44/2/1
f 47/2/1 45/2/1 46/2/1
f 50/1/1 49/1/1 48/1/1
f 51/1/1 49/1/1 50/1/1
f 54/1/1 53/1/1 52/1/1
f 55/1/1 53/1/1 54/1/1
f 58/4/1 57/4/1 56/4/1
f 59/4/1 57/4/1 58/4/1
f 62/4/1 61/4/1 60/4/1
f 63/4/1 61/4/1 62/4/1
f 68/3/1 65/3/1 64/3/1
f 68/3/1 67/3/1 66/3/1
f 68/3/1 66/3/1 65/3/1
f 69/3/1 67/3/1 68/3/1
f 70/3/1 67/3/1 69/3/1
f 71/3/1 67/3/1 70/3/1
f 72/3/1 67/3/1 71/3/1
f 73/3/1 67/3/1 72/3/1
f 74/3/2 75/3/2 76/3/2
f 76/3/2 75/3/2 77/3/2
f 78/1/2 79/1/2 80/1/2
f 80/1/2 79/1/2 81/1/2
f 78/1/2 80/1/2 82/1/2
f 81/1/2 79/1/2 83/1/2
f 78/1/2 82/1/2 84/1/2
f 82/1/2 83/1/2 84/1/2
f 83/1/2 79/1/2 85/1/2
f 84/1/2 83/1/2 85/1/2
f 86/4/2 87/4/2 88/4/2
f 88/4/2 87/4/2 89/4/2
f 90/2/2 91/2/2 92/2/2
f 92/2/2 91/2/2 93/2/2
f 86/4/2 88/4/2 94/4/2
f 89/4/2 87/4/2 95/4/2
f 86/4/2 94/4/2 96/4/2
f 94/4/2 95/4/2 96/4/2
f 95/4/2 87/4/2 97/4/2
f 96/4/2 95/4/2 97/4/2
f 98/4/2 99/4/2 100/4/2
f 100/4/2 99/4/2 101/4/2
f 102/4/2 103/4/2 104/4/2
f 104/4/2 103/4/2 105/4/2
f 106/1/2 107/1/2 108/1/2
f 108/1/2 107/1/2 109/1/2
f 110/1/2 111/1/2 112/1/2
f 112/1/2 111/1/2 113/1/2
f 114/2/2 115/2/2 116/2/2
f 116/2/2 115/2/2 117/2/2
f 118/2/2 119/2/2 120/2/2
f 120/2/2 119/2/2 121/2/2
f 122/1/2 123/1/2 124/1/2
f 124/1/2 123/1/2 125/1/2
f 126/1/2 127/1/2 128/1/2
f 128/1/2 127/1/2 129/1/2
f 130/3/2 131/3/2 132/3/2
f 132/3/2 131/3/2 133/3/2
f 132/4/2 133/4/2 134/4/2
f 133/3/2 131/3/2 135/3/2
f 134/4/2 133/4/2 135/4/2
f 135/3/2 131/3/2 136/3/2
f 135/4/2 136/4/2 137/4/2
f 136/3/2 131/3/2 138/3/2
f 137/4/2 136/4/2 138/4/2
f 138/3/2 131/3/2 139/3/2
f 142/3/3 141/3/3 140/3/3
f 143/3/3 141/3/3 142/3/3
f 144/4/3 143/4/3 142/4/3
f 145/4/3 143/4/3 144/4/3
f 146/3/3 142/3/3 140/3/3
f 147/4/3 144/4/3 142/4/3
f 147/3/3 142/3/3 146/3/3
f 148/4/3 144/4/3 147/4/3
f 151/1/3 150/1/3 149/1/3
f 152/1/3 150/1/3 151/1/3
f 155/1/3 154/1/3 153/1/3
f 156/1/3 154/1/3 155/1/3
f 159/2/3 158/2/3 157/2/3
f 160/2/3 158/2/3 159/2/3
f 163/2/3 162/2/3 161/2/3
f 164/2/3 162/2/3 163/2/3
f 167/1/3 166/1/3 165/1/3
f 168/1/3 166/1/3 167/1/3
f 171/1/3 170/1/3 169/1/3
f 172/1/3 170/1/3 171/1/3
f 175/4/3 174/4/3 173/4/3
f 176/4/3 174/4/3 175/4/3
f 179/4/3 178/4/3 177/4/3
f 180/4/3 178/4/3 179/4/3
f 183/4/3 182/4/3 181/4/3
f 184/4/3 182/4/3 183/4/3
f 187/2/3 186/2/3 185/2/3
f 188/2/3 186/2/3 187/2/3
f 189/4/3 183/4/3 181/4/3
f 190/4/3 182/4/3 184/4/3
f 191/4/3 189/4/3 181/4/3
f 191/4/3 190/4/3 189/4/3
f 192/4/3 182/4/3 190/4/3
f 192/4/3 190/4/3 191/4/3
f 195/1/3 194/1/3 193/1/3
f 196/1/3 194/1/3 195/1/3
f 197/1/3 195/1/3 193/1/3
f 198/1/3 194/1/3 196/1/3
f 199/1/3 197/1/3 193/1/3
f 199/1/3 198/1/3 197/1/3
f 200/1/3 194/1/3 198/1/3
f 200/1/3 198/1/3 199/1/3
f 203/3/3 202/3/3 201/3/3
f 204/3/3 202/3/3 203/3/3
f 205/3/4 206/3/4 207/3/4
f 207/3/4 206/3/4 208/3/4
f 208/3/4 206/3/4 209/3/4
f 209/3/4 206/3/4 210/3/4
f 207/3/4 208/3/4 211/3/4
f 208/4/4 209/4/4 212/4/4
f 211/3/4 208/3/4 212/3/4
f 212/4/4 209/4/4 213/4/4
f 211/3/4 212/3/4 214/3/4
f 214/3/4 212/3/4 215/3/4
f 216/4/4 217/4/4 218/4/4
f 218/4/4 217/4/4 219/4/4
f 220/4/4 221/4/4 222/4/4
f 222/4/4 221/4/4 223/4/4
f 224/1/4 225/1/4 226/1/4
f 226/1/4 225/1/4 227/1/4
f 228/1/4 229/1/4 230/1/4
f 230/1/4 229/1/4 231/1/4
f 232/2/4 233/2/4 234/2/4
f 234/2/4 233/2/4 235/2/4
f 236/2/4 237/2/4 238/2/4
f 238/2/4 237/2/4 239/2/4
f 240/1/4 241/1/4 242/1/4
f 242/1/4 241/1/4 243/1/4
f 244/1/4 245/1/4 246/1/4
f 246/1/4 245/1/4 247/1/4
f 248/4/4 249/4/4 251/4/4
f 251/4/4 249/4/4 252/4/4
f 250/4/4 251/4/4 253/4/4
f 253/4/4 251/4/4 254/4/4
f 255/4/4 256/4/4 257/4/4
f 257/4/4 256/4/4 258/4/4
f 259/2/4 260/2/4 261/2/4
f 261/2/4 260/2/4 262/2/4
f 255/4/4 257/4/4 263/4/4
f 258/4/4 256/4/4 264/4/4
f 255/4/4 263/4/4 265/4/4
f 263/4/4 264/4/4 265/4/4
f 264/4/4 256/4/4 266/4/4
f 265/4/4 264/4/4 266/4/4
f 267/1/4 268/1/4 269/1/4
f 269/1/4 268/1/4 270/1/4
f 267/1/4 269/1/4 271/1/4
f 270/1/4 268/1/4 272/1/4
f 267/1/4 271/1/4 273/1/4
f 271/1/4 272/1/4 273/1/4
f 272/1/4 268/1/4 274/1/4
f 273/1/4 272/1/4 274/1/4
f 275/3/4 276/3/4 277/3/4
f 277/3/4 276/3/4 278/3/4
f 281/3/5 280/3/5 279/3/5
f 282/3/5 280/3/5 281/3/5
f 283/3/5 281/3/5 279/3/5
f 283/4/5 282/4/5 281/4/5
f 284/3/5 280/3/5 282/3/5
f 284/4/5 282/4/5 283/4/5
f 285/3/5 280/3/5 284/3/5
f 286/3/5 284/3/5 283/3/5
f 286/4/5 285/4/5 284/4/5
f 287/3/5 280/3/5 285/3/5
f 287/4/5 285/4/5 286/4/5
f 288/3/5 283/3/5 279/3/5
f 288/3/5 286/3/5 283/3/5
f 288/3/5 287/3/5 286/3/5
f 289/3/5 280/3/5 287/3/5
f 289/3/5 287/3/5 288/3/5
f 292/1/5 291/1/5 290/1/5
f 293/1/5 291/1/5 292/1/5
f 294/1/5 292/1/5 290/1/5
f 295/1/5 291/1/5 293/1/5
f 296/1/5 294/1/5 290/1/5
f 296/1/5 295/1/5 294/1/5
f 297/1/5 291/1/5 295/1/5
f 297/1/5 295/1/5 296/1/5
f 300/4/5 299/4/5 298/4/5
f 301/4/5 299/4/5 300/4/5
f 304/2/5 303/2/5 302/2/5
f 305/2/5 303/2/5 304/2/5
f 306/4/5 300/4/5 298/4/5
f 307/4/5 299/4/5 301/4/5
f 308/4/5 306/4/5 298/4/5
f 308/4/5 307/4/5 306/4/5
f 309/4/5 299/4/5 307/4/5
f 309/4/5 307/4/5 308/4/5
f 312/4/5 311/4/5 310/4/5
f 313/4/5 311/4/5 312/4/5
f 315/4/5 314/4/5 313/4/5
f 316/4/5 314/4/5 315/4/5
f 319/1/5 318/1/5 317/1/5
f 320/1/5 318/1/5 319/1/5
f 323/1/5 322/1/5 321/1/5
f 324/1/5 322/1/5 323/1/5
f 327/2/5 326/2/5 325/2/5
f 328/2/5 326/2/5 327/2/5
f 331/2/5 330/2/5 329/2/5
f 332/2/5 330/2/5 331/2/5
f 335/1/5 334/1/5 333/1/5
f 336/1/5 334/1/5 335/1/5
f 339/1/5 338/1/5 337/1/5
f 340/1/5 338/1/5 339/1/5
f 343/4/5 342/4/5 341/4/5
f 344/4/5 342/4/5 343/4/5
f 347/4/5 346/4/5 345/4/5
f 348/4/5 346/4/5 347/4/5
f 351/3/5 350/3/5 349/3/5
f 353/3/5 351/3/5 349/3/5
f 353/4/5 352/4/5 351/4/5
f 354/4/5 352/4/5 353/4/5
f 356/3/5 353/3/5 349/3/5
f 356/3/5 355/3/5 354/3/5
f 356/3/5 354/3/5 353/3/5
f 357/3/5 355/3/5 356/3/5
f 358/3/6 359/3/6 362/3/6
f 359/4/6 360/4/6 362/4/6
f 360/3/6 361/3/6 363/3/6
f 362/4/6 360/4/6 363/4/6
f 363/3/6 361/3/6 364/3/6
f 362/3/6 363/3/6 365/3/6
f 363/4/6 364/4/6 365/4/6
f 365/4/6 364/4/6 366/4/6
f 358/3/6 362/3/6 367/3/6
f 362/3/6 365/3/6 367/3/6
f 365/3/6 366/3/6 367/3/6
f 367/3/6 366/3/6 368/3/6
f 369/1/6 370/1/6 371/1/6
f 371/1/6 370/1/6 372/1/6
f 369/1/6 371/1/6 373/1/6
f 372/1/6 370/1/6 374/1/6
f 369/1/6 373/1/6 375/1/6
f 373/1/6 374/1/6 375/1/6
f 374/1/6 370/1/6 376/1/6
f 375/1/6 374/1/6 376/1/6
f 377/4/6 378/4/6 379/4/6
f 379/4/6 378/4/6 380/4/6
f 381/2/6 382/2/6 383/2/6
f 383/2/6 382/2/6 384/2/6
f 377/4/6 379/4/6 385/4/6
f 380/4/6 378/4/6 386/4/6
f 377/4/6 385/4/6 387/4/6
f 385/4/6 386/4/6 387/4/6
f 386/4/6 378/4/6 388/4/6
f 387/4/6 386/4/6 388/4/6
f 389/4/6 390/4/6 391/4/6
f 391/4/6 390/4/6 392/4/6
f 393/4/6 394/4/6 395/4/6
f 395/4/6 394/4/6 396/4/6
f 397/1/6 398/1/6 399/1/6
f 399/1/6 398/1/6 400/1/6
f 401/1/6 402/1/6 403/1/6
f 403/1/6 402/1/6 404/1/6
f 405/2/6 406/2/6 407/2/6
f 407/2/6 406/2/6 408/2/6
f 409/2/6 410/2/6 411/2/6
f 411/2/6 410/2/6 412/2/6
f 413/1/6 414/1/6 415/1/6
f 415/1/6 414/1/6 416/1/6
f 417/1/6 418/1/6 419/1/6
f 419/1/6 418/1/6 420/1/6
f 422/4/6 423/4/6 424/4/6
f 421/3/6 422/3/6 426/3/6
f 424/4/6 425/4/6 426/4/6
f 422/4/6 424/4/6 426/4/6
f 426/4/6 425/4/6 427/4/6
f 421/3/6 426/3/6 428/3/6
f 426/3/6 427/3/6 428/3/6
f 428/3/6 427/3/6 429/3/6
