# MagicaVoxel @ Ephtracy

# group
o 

# material
mtllib Block.mtl
usemtl palette

# normals
vn -1 0 0
vn 1 0 0
vn 0 0 1
vn 0 0 -1
vn 0 -1 0
vn 0 1 0

# texcoords
vt 0.958984 0.5
vt 0.986328 0.5
vt 0.990234 0.5

# verts
v -6.4 0 6.4
v -6.4 0 -6.4
v -6.4 0.2 6.2
v -6.4 0.2 -6.2
v -6.4 0.5 5.9
v -6.4 0.5 -5.9
v -6.4 12.3 5.9
v -6.4 12.3 -5.9
v -6.4 12.6 6.2
v -6.4 12.6 -6.2
v -6.4 12.8 6.4
v -6.4 12.8 -6.4
v -6.3 0.2 6.2
v -6.3 0.2 -6.2
v -6.3 0.5 5.9
v -6.3 0.5 -5.9
v -6.3 12.3 5.9
v -6.3 12.3 -5.9
v -6.3 12.6 6.2
v -6.3 12.6 -6.2
v -5.9 0 5.9
v -5.9 0 -5.9
v -5.9 0.1 5.9
v -5.9 0.1 -5.9
v -5.9 0.5 6.4
v -5.9 0.5 6.3
v -5.9 0.5 -6.3
v -5.9 0.5 -6.4
v -5.9 12.3 6.4
v -5.9 12.3 6.3
v -5.9 12.3 -6.3
v -5.9 12.3 -6.4
v -5.9 12.7 5.9
v -5.9 12.7 -5.9
v -5.9 12.8 5.9
v -5.9 12.8 -5.9
v 6.2 0 6.2
v 6.2 0 -6.2
v 6.2 0.1 6.2
v 6.2 0.1 -6.2
v 6.2 0.2 6.4
v 6.2 0.2 6.3
v 6.2 0.2 -6.3
v 6.2 0.2 -6.4
v 6.2 12.6 6.4
v 6.2 12.6 6.3
v 6.2 12.6 -6.3
v 6.2 12.6 -6.4
v 6.2 12.7 6.2
v 6.2 12.7 -6.2
v 6.2 12.8 6.2
v 6.2 12.8 -6.2
v -6.2 0 6.2
v -6.2 0 -6.2
v -6.2 0.1 6.2
v -6.2 0.1 -6.2
v -6.2 0.2 6.4
v -6.2 0.2 6.3
v -6.2 0.2 -6.3
v -6.2 0.2 -6.4
v -6.2 12.6 6.4
v -6.2 12.6 6.3
v -6.2 12.6 -6.3
v -6.2 12.6 -6.4
v -6.2 12.7 6.2
v -6.2 12.7 -6.2
v -6.2 12.8 6.2
v -6.2 12.8 -6.2
v 5.9 0 5.9
v 5.9 0 -5.9
v 5.9 0.1 5.9
v 5.9 0.1 -5.9
v 5.9 0.5 6.4
v 5.9 0.5 6.3
v 5.9 0.5 -6.3
v 5.9 0.5 -6.4
v 5.9 12.3 6.4
v 5.9 12.3 6.3
v 5.9 12.3 -6.3
v 5.9 12.3 -6.4
v 5.9 12.7 5.9
v 5.9 12.7 -5.9
v 5.9 12.8 5.9
v 5.9 12.8 -5.9
v 6.3 0.2 6.2
v 6.3 0.2 -6.2
v 6.3 0.5 5.9
v 6.3 0.5 -5.9
v 6.3 12.3 5.9
v 6.3 12.3 -5.9
v 6.3 12.6 6.2
v 6.3 12.6 -6.2
v 6.4 0 6.4
v 6.4 0 -6.4
v 6.4 0.2 6.2
v 6.4 0.2 -6.2
v 6.4 0.5 5.9
v 6.4 0.5 -5.9
v 6.4 12.3 5.9
v 6.4 12.3 -5.9
v 6.4 12.6 6.2
v 6.4 12.6 -6.2
v 6.4 12.8 6.4
v 6.4 12.8 -6.4
v -6.4 0 6.4
v -6.4 12.8 6.4
v -6.2 0.2 6.4
v -6.2 12.6 6.4
v -5.9 0.5 6.4
v -5.9 12.3 6.4
v 5.9 0.5 6.4
v 5.9 12.3 6.4
v 6.2 0.2 6.4
v 6.2 12.6 6.4
v 6.4 0 6.4
v 6.4 12.8 6.4
v -6.2 0.2 6.3
v -6.2 12.6 6.3
v -5.9 0.5 6.3
v -5.9 12.3 6.3
v 5.9 0.5 6.3
v 5.9 12.3 6.3
v 6.2 0.2 6.3
v 6.2 12.6 6.3
v -6.4 0.5 5.9
v -6.4 12.3 5.9
v -6.3 0.5 5.9
v -6.3 12.3 5.9
v -5.9 0 5.9
v -5.9 0.1 5.9
v -5.9 12.7 5.9
v -5.9 12.8 5.9
v 5.9 0 5.9
v 5.9 0.1 5.9
v 5.9 12.7 5.9
v 5.9 12.8 5.9
v 6.3 0.5 5.9
v 6.3 12.3 5.9
v 6.4 0.5 5.9
v 6.4 12.3 5.9
v -6.4 0.2 -6.2
v -6.4 12.6 -6.2
v -6.3 0.2 -6.2
v -6.3 12.6 -6.2
v -6.2 0 -6.2
v -6.2 0.1 -6.2
v -6.2 12.7 -6.2
v -6.2 12.8 -6.2
v 6.2 0 -6.2
v 6.2 0.1 -6.2
v 6.2 12.7 -6.2
v 6.2 12.8 -6.2
v 6.3 0.2 -6.2
v 6.3 12.6 -6.2
v 6.4 0.2 -6.2
v 6.4 12.6 -6.2
v -6.4 0.2 6.2
v -6.4 12.6 6.2
v -6.3 0.2 6.2
v -6.3 12.6 6.2
v -6.2 0 6.2
v -6.2 0.1 6.2
v -6.2 12.7 6.2
v -6.2 12.8 6.2
v 6.2 0 6.2
v 6.2 0.1 6.2
v 6.2 12.7 6.2
v 6.2 12.8 6.2
v 6.3 0.2 6.2
v 6.3 12.6 6.2
v 6.4 0.2 6.2
v 6.4 12.6 6.2
v -6.4 0.5 -5.9
v -6.4 12.3 -5.9
v -6.3 0.5 -5.9
v -6.3 12.3 -5.9
v -5.9 0 -5.9
v -5.9 0.1 -5.9
v -5.9 12.7 -5.9
v -5.9 12.8 -5.9
v 5.9 0 -5.9
v 5.9 0.1 -5.9
v 5.9 12.7 -5.9
v 5.9 12.8 -5.9
v 6.3 0.5 -5.9
v 6.3 12.3 -5.9
v 6.4 0.5 -5.9
v 6.4 12.3 -5.9
v -6.2 0.2 -6.3
v -6.2 12.6 -6.3
v -5.9 0.5 -6.3
v -5.9 12.3 -6.3
v 5.9 0.5 -6.3
v 5.9 12.3 -6.3
v 6.2 0.2 -6.3
v 6.2 12.6 -6.3
v -6.4 0 -6.4
v -6.4 12.8 -6.4
v -6.2 0.2 -6.4
v -6.2 12.6 -6.4
v -5.9 0.5 -6.4
v -5.9 12.3 -6.4
v 5.9 0.5 -6.4
v 5.9 12.3 -6.4
v 6.2 0.2 -6.4
v 6.2 12.6 -6.4
v 6.4 0 -6.4
v 6.4 12.8 -6.4
v -6.4 0 6.4
v 6.4 0 6.4
v -6.2 0 6.2
v 6.2 0 6.2
v -5.9 0 5.9
v 5.9 0 5.9
v -5.9 0 -5.9
v 5.9 0 -5.9
v -6.2 0 -6.2
v 6.2 0 -6.2
v -6.4 0 -6.4
v 6.4 0 -6.4
v -6.2 0.1 6.2
v 6.2 0.1 6.2
v -5.9 0.1 5.9
v 5.9 0.1 5.9
v -5.9 0.1 -5.9
v 5.9 0.1 -5.9
v -6.2 0.1 -6.2
v 6.2 0.1 -6.2
v -5.9 0.5 6.4
v 5.9 0.5 6.4
v -5.9 0.5 6.3
v 5.9 0.5 6.3
v -6.4 0.5 5.9
v -6.3 0.5 5.9
v 6.3 0.5 5.9
v 6.4 0.5 5.9
v -6.4 0.5 -5.9
v -6.3 0.5 -5.9
v 6.3 0.5 -5.9
v 6.4 0.5 -5.9
v -5.9 0.5 -6.3
v 5.9 0.5 -6.3
v -5.9 0.5 -6.4
v 5.9 0.5 -6.4
v -6.2 12.6 6.4
v 6.2 12.6 6.4
v -6.2 12.6 6.3
v 6.2 12.6 6.3
v -6.4 12.6 6.2
v -6.3 12.6 6.2
v 6.3 12.6 6.2
v 6.4 12.6 6.2
v -6.4 12.6 -6.2
v -6.3 12.6 -6.2
v 6.3 12.6 -6.2
v 6.4 12.6 -6.2
v -6.2 12.6 -6.3
v 6.2 12.6 -6.3
v -6.2 12.6 -6.4
v 6.2 12.6 -6.4
v -6.2 0.2 6.4
v 6.2 0.2 6.4
v -6.2 0.2 6.3
v 6.2 0.2 6.3
v -6.4 0.2 6.2
v -6.3 0.2 6.2
v 6.3 0.2 6.2
v 6.4 0.2 6.2
v -6.4 0.2 -6.2
v -6.3 0.2 -6.2
v 6.3 0.2 -6.2
v 6.4 0.2 -6.2
v -6.2 0.2 -6.3
v 6.2 0.2 -6.3
v -6.2 0.2 -6.4
v 6.2 0.2 -6.4
v -5.9 12.3 6.4
v 5.9 12.3 6.4
v -5.9 12.3 6.3
v 5.9 12.3 6.3
v -6.4 12.3 5.9
v -6.3 12.3 5.9
v 6.3 12.3 5.9
v 6.4 12.3 5.9
v -6.4 12.3 -5.9
v -6.3 12.3 -5.9
v 6.3 12.3 -5.9
v 6.4 12.3 -5.9
v -5.9 12.3 -6.3
v 5.9 12.3 -6.3
v -5.9 12.3 -6.4
v 5.9 12.3 -6.4
v -6.2 12.7 6.2
v 6.2 12.7 6.2
v -5.9 12.7 5.9
v 5.9 12.7 5.9
v -5.9 12.7 -5.9
v 5.9 12.7 -5.9
v -6.2 12.7 -6.2
v 6.2 12.7 -6.2
v -6.4 12.8 6.4
v 6.4 12.8 6.4
v -6.2 12.8 6.2
v 6.2 12.8 6.2
v -5.9 12.8 5.9
v 5.9 12.8 5.9
v -5.9 12.8 -5.9
v 5.9 12.8 -5.9
v -6.2 12.8 -6.2
v 6.2 12.8 -6.2
v -6.4 12.8 -6.4
v 6.4 12.8 -6.4

# faces
f 3/3/1 2/3/1 1/3/1
f 4/3/1 2/3/1 3/3/1
f 7/2/1 6/2/1 5/2/1
f 8/2/1 6/2/1 7/2/1
f 9/3/1 3/3/1 1/3/1
f 10/3/1 2/3/1 4/3/1
f 11/3/1 9/3/1 1/3/1
f 11/3/1 10/3/1 9/3/1
f 12/3/1 2/3/1 10/3/1
f 12/3/1 10/3/1 11/3/1
f 15/1/1 14/1/1 13/1/1
f 16/1/1 14/1/1 15/1/1
f 17/1/1 15/1/1 13/1/1
f 18/1/1 14/1/1 16/1/1
f 19/1/1 17/1/1 13/1/1
f 19/1/1 18/1/1 17/1/1
f 20/1/1 14/1/1 18/1/1
f 20/1/1 18/1/1 19/1/1
f 23/2/1 22/2/1 21/2/1
f 24/2/1 22/2/1 23/2/1
f 29/2/1 26/2/1 25/2/1
f 30/2/1 26/2/1 29/2/1
f 31/2/1 28/2/1 27/2/1
f 32/2/1 28/2/1 31/2/1
f 35/2/1 34/2/1 33/2/1
f 36/2/1 34/2/1 35/2/1
f 39/3/1 38/3/1 37/3/1
f 40/3/1 38/3/1 39/3/1
f 45/3/1 42/3/1 41/3/1
f 46/3/1 42/3/1 45/3/1
f 47/3/1 44/3/1 43/3/1
f 48/3/1 44/3/1 47/3/1
f 51/3/1 50/3/1 49/3/1
f 52/3/1 50/3/1 51/3/1
f 53/3/2 54/3/2 55/3/2
f 55/3/2 54/3/2 56/3/2
f 57/3/2 58/3/2 61/3/2
f 61/3/2 58/3/2 62/3/2
f 59/3/2 60/3/2 63/3/2
f 63/3/2 60/3/2 64/3/2
f 65/3/2 66/3/2 67/3/2
f 67/3/2 66/3/2 68/3/2
f 69/2/2 70/2/2 71/2/2
f 71/2/2 70/2/2 72/2/2
f 73/2/2 74/2/2 77/2/2
f 77/2/2 74/2/2 78/2/2
f 75/2/2 76/2/2 79/2/2
f 79/2/2 76/2/2 80/2/2
f 81/2/2 82/2/2 83/2/2
f 83/2/2 82/2/2 84/2/2
f 85/1/2 86/1/2 87/1/2
f 87/1/2 86/1/2 88/1/2
f 85/1/2 87/1/2 89/1/2
f 88/1/2 86/1/2 90/1/2
f 85/1/2 89/1/2 91/1/2
f 89/1/2 90/1/2 91/1/2
f 90/1/2 86/1/2 92/1/2
f 91/1/2 90/1/2 92/1/2
f 93/3/2 94/3/2 95/3/2
f 95/3/2 94/3/2 96/3/2
f 97/2/2 98/2/2 99/2/2
f 99/2/2 98/2/2 100/2/2
f 93/3/2 95/3/2 101/3/2
f 96/3/2 94/3/2 102/3/2
f 93/3/2 101/3/2 103/3/2
f 101/3/2 102/3/2 103/3/2
f 102/3/2 94/3/2 104/3/2
f 103/3/2 102/3/2 104/3/2
f 107/3/3 106/3/3 105/3/3
f 108/3/3 106/3/3 107/3/3
f 111/2/3 110/2/3 109/2/3
f 112/2/3 110/2/3 111/2/3
f 113/3/3 107/3/3 105/3/3
f 114/3/3 106/3/3 108/3/3
f 115/3/3 113/3/3 105/3/3
f 115/3/3 114/3/3 113/3/3
f 116/3/3 106/3/3 114/3/3
f 116/3/3 114/3/3 115/3/3
f 119/1/3 118/1/3 117/1/3
f 120/1/3 118/1/3 119/1/3
f 121/1/3 119/1/3 117/1/3
f 122/1/3 118/1/3 120/1/3
f 123/1/3 121/1/3 117/1/3
f 123/1/3 122/1/3 121/1/3
f 124/1/3 118/1/3 122/1/3
f 124/1/3 122/1/3 123/1/3
f 127/2/3 126/2/3 125/2/3
f 128/2/3 126/2/3 127/2/3
f 133/2/3 130/2/3 129/2/3
f 134/2/3 130/2/3 133/2/3
f 135/2/3 132/2/3 131/2/3
f 136/2/3 132/2/3 135/2/3
f 139/2/3 138/2/3 137/2/3
f 140/2/3 138/2/3 139/2/3
f 143/3/3 142/3/3 141/3/3
f 144/3/3 142/3/3 143/3/3
f 149/3/3 146/3/3 145/3/3
f 150/3/3 146/3/3 149/3/3
f 151/3/3 148/3/3 147/3/3
f 152/3/3 148/3/3 151/3/3
f 155/3/3 154/3/3 153/3/3
f 156/3/3 154/3/3 155/3/3
f 157/3/4 158/3/4 159/3/4
f 159/3/4 158/3/4 160/3/4
f 161/3/4 162/3/4 165/3/4
f 165/3/4 162/3/4 166/3/4
f 163/3/4 164/3/4 167/3/4
f 167/3/4 164/3/4 168/3/4
f 169/3/4 170/3/4 171/3/4
f 171/3/4 170/3/4 172/3/4
f 173/2/4 174/2/4 175/2/4
f 175/2/4 174/2/4 176/2/4
f 177/2/4 178/2/4 181/2/4
f 181/2/4 178/2/4 182/2/4
f 179/2/4 180/2/4 183/2/4
f 183/2/4 180/2/4 184/2/4
f 185/2/4 186/2/4 187/2/4
f 187/2/4 186/2/4 188/2/4
f 189/1/4 190/1/4 191/1/4
f 191/1/4 190/1/4 192/1/4
f 189/1/4 191/1/4 193/1/4
f 192/1/4 190/1/4 194/1/4
f 189/1/4 193/1/4 195/1/4
f 193/1/4 194/1/4 195/1/4
f 194/1/4 190/1/4 196/1/4
f 195/1/4 194/1/4 196/1/4
f 197/3/4 198/3/4 199/3/4
f 199/3/4 198/3/4 200/3/4
f 201/2/4 202/2/4 203/2/4
f 203/2/4 202/2/4 204/2/4
f 197/3/4 199/3/4 205/3/4
f 200/3/4 198/3/4 206/3/4
f 197/3/4 205/3/4 207/3/4
f 205/3/4 206/3/4 207/3/4
f 206/3/4 198/3/4 208/3/4
f 207/3/4 206/3/4 208/3/4
f 211/3/5 210/3/5 209/3/5
f 212/3/5 210/3/5 211/3/5
f 215/2/5 214/2/5 213/2/5
f 216/2/5 214/2/5 215/2/5
f 217/3/5 211/3/5 209/3/5
f 218/3/5 210/3/5 212/3/5
f 219/3/5 217/3/5 209/3/5
f 219/3/5 218/3/5 217/3/5
f 220/3/5 210/3/5 218/3/5
f 220/3/5 218/3/5 219/3/5
f 223/1/5 222/1/5 221/1/5
f 224/1/5 222/1/5 223/1/5
f 225/1/5 223/1/5 221/1/5
f 226/1/5 222/1/5 224/1/5
f 227/1/5 225/1/5 221/1/5
f 227/1/5 226/1/5 225/1/5
f 228/1/5 222/1/5 226/1/5
f 228/1/5 226/1/5 227/1/5
f 231/2/5 230/2/5 229/2/5
f 232/2/5 230/2/5 231/2/5
f 237/2/5 234/2/5 233/2/5
f 238/2/5 234/2/5 237/2/5
f 239/2/5 236/2/5 235/2/5
f 240/2/5 236/2/5 239/2/5
f 243/2/5 242/2/5 241/2/5
f 244/2/5 242/2/5 243/2/5
f 247/3/5 246/3/5 245/3/5
f 248/3/5 246/3/5 247/3/5
f 253/3/5 250/3/5 249/3/5
f 254/3/5 250/3/5 253/3/5
f 255/3/5 252/3/5 251/3/5
f 256/3/5 252/3/5 255/3/5
f 259/3/5 258/3/5 257/3/5
f 260/3/5 258/3/5 259/3/5
f 261/3/6 262/3/6 263/3/6
f 263/3/6 262/3/6 264/3/6
f 265/3/6 266/3/6 269/3/6
f 269/3/6 266/3/6 270/3/6
f 267/3/6 268/3/6 271/3/6
f 271/3/6 268/3/6 272/3/6
f 273/3/6 274/3/6 275/3/6
f 275/3/6 274/3/6 276/3/6
f 277/2/6 278/2/6 279/2/6
f 279/2/6 278/2/6 280/2/6
f 281/2/6 282/2/6 285/2/6
f 285/2/6 282/2/6 286/2/6
f 283/2/6 284/2/6 287/2/6
f 287/2/6 284/2/6 288/2/6
f 289/2/6 290/2/6 291/2/6
f 291/2/6 290/2/6 292/2/6
f 293/1/6 294/1/6 295/1/6
f 295/1/6 294/1/6 296/1/6
f 293/1/6 295/1/6 297/1/6
f 296/1/6 294/1/6 298/1/6
f 293/1/6 297/1/6 299/1/6
f 297/1/6 298/1/6 299/1/6
f 298/1/6 294/1/6 300/1/6
f 299/1/6 298/1/6 300/1/6
f 301/3/6 302/3/6 303/3/6
f 303/3/6 302/3/6 304/3/6
f 305/2/6 306/2/6 307/2/6
f 307/2/6 306/2/6 308/2/6
f 301/3/6 303/3/6 309/3/6
f 304/3/6 302/3/6 310/3/6
f 301/3/6 309/3/6 311/3/6
f 309/3/6 310/3/6 311/3/6
f 310/3/6 302/3/6 312/3/6
f 311/3/6 310/3/6 312/3/6
