# MagicaVoxel @ Ephtracy

# group
o 

# material
mtllib Door.mtl
usemtl palette

# normals
vn -1 0 0
vn 1 0 0
vn 0 0 1
vn 0 0 -1
vn 0 -1 0
vn 0 1 0

# texcoords
vt 0.958984 0.5
vt 0.986328 0.5
vt 0.990234 0.5

# verts
v -12.8 0 12.8
v -12.8 0 -12.8
v -12.8 0.4 6
v -12.8 0.4 -6.1
v -12.8 15.8 6
v -12.8 15.8 -6.1
v -12.8 25.6 12.8
v -12.8 25.6 -12.8
v 12.5 0.3 12.6
v 12.5 0.3 -12.6
v 12.5 0.4 12.6
v 12.5 0.4 -12.6
v -12.5 0.6 12.6
v -12.5 0.6 6
v -12.5 0.6 -6.1
v -12.5 0.6 -12.6
v -12.5 0.9 12.3
v -12.5 0.9 6.3
v -12.5 0.9 -6.4
v -12.5 0.9 -12.3
v -12.5 15.8 12.3
v -12.5 15.8 6.3
v -12.5 15.8 6
v -12.5 15.8 -6.1
v -12.5 15.8 -6.4
v -12.5 15.8 -12.3
v -12.5 16.1 12.3
v -12.5 16.1 -12.3
v -12.5 25.1 12.3
v -12.5 25.1 -12.3
v -12.5 25.4 12.6
v -12.5 25.4 -12.6
v -12.4 0.4 12.8
v -12.4 0.4 6
v -12.4 0.4 -6.1
v -12.4 0.4 -12.8
v -12.4 0.6 12.6
v -12.4 0.6 6
v -12.4 0.6 -6.1
v -12.4 0.6 -12.6
v -12.4 0.9 12.3
v -12.4 0.9 6.3
v -12.4 0.9 -6.4
v -12.4 0.9 -12.3
v -12.4 15.8 12.3
v -12.4 15.8 6.3
v -12.4 15.8 -6.4
v -12.4 15.8 -12.3
v -12.4 16.1 12.3
v -12.4 16.1 -12.3
v -12.4 25.1 12.3
v -12.4 25.1 -12.3
v -12.4 25.4 12.6
v -12.4 25.4 -12.6
v -12.4 25.6 12.8
v -12.4 25.6 -12.8
v -12.1 0.3 12.6
v -12.1 0.3 -12.6
v -12.1 0.4 12.6
v -12.1 0.4 -12.6
v 12.8 0 12.8
v 12.8 0 -12.8
v 12.8 0.3 12.8
v 12.8 0.3 -12.8
v 12.8 0.4 12.8
v 12.8 0.4 -12.8
v -12.8 0 12.8
v -12.8 25.6 12.8
v -12.5 0.4 12.8
v -12.5 25.6 12.8
v -12.4 0.3 12.8
v -12.4 0.4 12.8
v -12.4 25.6 12.8
v 12.8 0 12.8
v 12.8 0.3 12.8
v 12.8 0.4 12.8
v -12.5 0.9 12.3
v -12.5 15.8 12.3
v -12.5 16.1 12.3
v -12.5 25.1 12.3
v -12.4 0.9 12.3
v -12.4 15.8 12.3
v -12.4 16.1 12.3
v -12.4 25.1 12.3
v -12.8 0.4 -6.1
v -12.8 15.8 -6.1
v -12.6 0.6 -6.1
v -12.6 15.8 -6.1
v -12.5 0.4 -6.1
v -12.5 0.6 -6.1
v -12.5 15.8 -6.1
v -12.4 0.4 -6.1
v -12.4 0.6 -6.1
v -12.5 0.9 -6.4
v -12.5 15.8 -6.4
v -12.4 0.9 -6.4
v -12.4 15.8 -6.4
v -12.5 0.6 -12.6
v -12.5 25.4 -12.6
v -12.4 0.6 -12.6
v -12.4 25.4 -12.6
v -12.1 0.3 -12.6
v -12.1 0.4 -12.6
v 12.5 0.3 -12.6
v 12.5 0.4 -12.6
v -12.5 0.6 12.6
v -12.5 25.4 12.6
v -12.4 0.6 12.6
v -12.4 25.4 12.6
v -12.1 0.3 12.6
v -12.1 0.4 12.6
v 12.5 0.3 12.6
v 12.5 0.4 12.6
v -12.5 0.9 6.3
v -12.5 15.8 6.3
v -12.4 0.9 6.3
v -12.4 15.8 6.3
v -12.8 0.4 6
v -12.8 15.8 6
v -12.6 0.6 6
v -12.6 15.8 6
v -12.5 0.4 6
v -12.5 0.6 6
v -12.5 15.8 6
v -12.4 0.4 6
v -12.4 0.6 6
v -12.5 0.9 -12.3
v -12.5 15.8 -12.3
v -12.5 16.1 -12.3
v -12.5 25.1 -12.3
v -12.4 0.9 -12.3
v -12.4 15.8 -12.3
v -12.4 16.1 -12.3
v -12.4 25.1 -12.3
v -12.8 0 -12.8
v -12.8 25.6 -12.8
v -12.5 0.4 -12.8
v -12.5 25.6 -12.8
v -12.4 0.3 -12.8
v -12.4 0.4 -12.8
v -12.4 25.6 -12.8
v 12.8 0 -12.8
v 12.8 0.3 -12.8
v 12.8 0.4 -12.8
v -12.8 0 12.8
v 12.8 0 12.8
v -12.8 0 -12.8
v 12.8 0 -12.8
v -12.5 0.9 12.3
v -12.4 0.9 12.3
v -12.5 0.9 6.3
v -12.4 0.9 6.3
v -12.5 0.9 -6.4
v -12.4 0.9 -6.4
v -12.5 0.9 -12.3
v -12.4 0.9 -12.3
v -12.8 15.8 6
v -12.6 15.8 6
v -12.5 15.8 6
v -12.8 15.8 -6.1
v -12.6 15.8 -6.1
v -12.5 15.8 -6.1
v -12.5 16.1 12.3
v -12.4 16.1 12.3
v -12.5 16.1 -12.3
v -12.4 16.1 -12.3
v -12.5 25.4 12.6
v -12.4 25.4 12.6
v -12.5 25.4 -12.6
v -12.4 25.4 -12.6
v -12.1 0.3 12.6
v 12.5 0.3 12.6
v -11.8 0.3 12.3
v 12.2 0.3 12.3
v -11.8 0.3 -12.3
v 12.2 0.3 -12.3
v -12.1 0.3 -12.6
v 12.5 0.3 -12.6
v -12.4 0.4 12.8
v 12.8 0.4 12.8
v -12.1 0.4 12.6
v 12.5 0.4 12.6
v -12.8 0.4 6
v -12.5 0.4 6
v -12.4 0.4 6
v -12.8 0.4 -6.1
v -12.5 0.4 -6.1
v -12.4 0.4 -6.1
v -12.1 0.4 -12.6
v 12.5 0.4 -12.6
v -12.4 0.4 -12.8
v 12.8 0.4 -12.8
v -12.5 0.6 12.6
v -12.4 0.6 12.6
v -12.5 0.6 6
v -12.4 0.6 6
v -12.5 0.6 -6.1
v -12.4 0.6 -6.1
v -12.5 0.6 -12.6
v -12.4 0.6 -12.6
v -12.5 15.8 12.3
v -12.4 15.8 12.3
v -12.5 15.8 6.3
v -12.4 15.8 6.3
v -12.5 15.8 -6.4
v -12.4 15.8 -6.4
v -12.5 15.8 -12.3
v -12.4 15.8 -12.3
v -12.5 25.1 12.3
v -12.4 25.1 12.3
v -12.5 25.1 -12.3
v -12.4 25.1 -12.3
v -12.8 25.6 12.8
v -12.5 25.6 12.8
v -12.4 25.6 12.8
v -12.8 25.6 -12.8
v -12.5 25.6 -12.8
v -12.4 25.6 -12.8

# faces
f 3/2/1 2/2/1 1/2/1
f 4/2/1 2/2/1 3/2/1
f 5/2/1 3/2/1 1/2/1
f 6/2/1 2/2/1 4/2/1
f 7/2/1 5/2/1 1/2/1
f 7/2/1 6/2/1 5/2/1
f 8/2/1 2/2/1 6/2/1
f 8/2/1 6/2/1 7/2/1
f 11/3/1 10/3/1 9/3/1
f 12/3/1 10/3/1 11/3/1
f 13/1/2 14/1/2 17/1/2
f 17/1/2 14/1/2 18/1/2
f 15/1/2 16/1/2 19/1/2
f 19/1/2 16/1/2 20/1/2
f 13/1/2 17/1/2 21/1/2
f 18/1/2 14/1/2 22/1/2
f 22/1/2 14/1/2 23/1/2
f 15/1/2 19/1/2 24/1/2
f 24/1/2 19/1/2 25/1/2
f 20/1/2 16/1/2 26/1/2
f 13/1/2 21/1/2 27/1/2
f 25/1/2 26/1/2 27/1/2
f 24/1/2 25/1/2 27/1/2
f 22/1/2 23/1/2 27/1/2
f 23/1/2 24/1/2 27/1/2
f 21/1/2 22/1/2 27/1/2
f 26/1/2 16/1/2 28/1/2
f 27/1/2 26/1/2 28/1/2
f 13/1/2 27/1/2 29/1/2
f 28/1/2 16/1/2 30/1/2
f 13/1/2 29/1/2 31/1/2
f 29/1/2 30/1/2 31/1/2
f 30/1/2 16/1/2 32/1/2
f 31/1/2 30/1/2 32/1/2
f 33/3/2 34/3/2 37/3/2
f 37/3/2 34/3/2 38/3/2
f 35/3/2 36/3/2 39/3/2
f 39/3/2 36/3/2 40/3/2
f 41/2/2 42/2/2 45/2/2
f 45/2/2 42/2/2 46/2/2
f 43/2/2 44/2/2 47/2/2
f 47/2/2 44/2/2 48/2/2
f 49/2/2 50/2/2 51/2/2
f 51/2/2 50/2/2 52/2/2
f 33/3/2 37/3/2 53/3/2
f 40/3/2 36/3/2 54/3/2
f 33/3/2 53/3/2 55/3/2
f 53/3/2 54/3/2 55/3/2
f 54/3/2 36/3/2 56/3/2
f 55/3/2 54/3/2 56/3/2
f 57/3/2 58/3/2 59/3/2
f 59/3/2 58/3/2 60/3/2
f 61/2/2 62/2/2 63/2/2
f 63/2/2 62/2/2 64/2/2
f 63/3/2 64/3/2 65/3/2
f 65/3/2 64/3/2 66/3/2
f 69/2/3 68/2/3 67/2/3
f 70/2/3 68/2/3 69/2/3
f 71/2/3 69/2/3 67/2/3
f 72/3/3 70/3/3 69/3/3
f 72/2/3 69/2/3 71/2/3
f 73/3/3 70/3/3 72/3/3
f 74/2/3 71/2/3 67/2/3
f 75/3/3 72/3/3 71/3/3
f 75/2/3 71/2/3 74/2/3
f 76/3/3 72/3/3 75/3/3
f 81/2/3 78/2/3 77/2/3
f 82/2/3 78/2/3 81/2/3
f 83/2/3 80/2/3 79/2/3
f 84/2/3 80/2/3 83/2/3
f 87/2/3 86/2/3 85/2/3
f 88/2/3 86/2/3 87/2/3
f 89/2/3 87/2/3 85/2/3
f 90/1/3 88/1/3 87/1/3
f 90/2/3 87/2/3 89/2/3
f 91/1/3 88/1/3 90/1/3
f 92/3/3 90/3/3 89/3/3
f 93/3/3 90/3/3 92/3/3
f 96/2/3 95/2/3 94/2/3
f 97/2/3 95/2/3 96/2/3
f 100/3/3 99/3/3 98/3/3
f 101/3/3 99/3/3 100/3/3
f 104/3/3 103/3/3 102/3/3
f 105/3/3 103/3/3 104/3/3
f 106/3/4 107/3/4 108/3/4
f 108/3/4 107/3/4 109/3/4
f 110/3/4 111/3/4 112/3/4
f 112/3/4 111/3/4 113/3/4
f 114/2/4 115/2/4 116/2/4
f 116/2/4 115/2/4 117/2/4
f 118/2/4 119/2/4 120/2/4
f 120/2/4 119/2/4 121/2/4
f 118/2/4 120/2/4 122/2/4
f 120/1/4 121/1/4 123/1/4
f 122/2/4 120/2/4 123/2/4
f 123/1/4 121/1/4 124/1/4
f 122/3/4 123/3/4 125/3/4
f 125/3/4 123/3/4 126/3/4
f 127/2/4 128/2/4 131/2/4
f 131/2/4 128/2/4 132/2/4
f 129/2/4 130/2/4 133/2/4
f 133/2/4 130/2/4 134/2/4
f 135/2/4 136/2/4 137/2/4
f 137/2/4 136/2/4 138/2/4
f 135/2/4 137/2/4 139/2/4
f 137/3/4 138/3/4 140/3/4
f 139/2/4 137/2/4 140/2/4
f 140/3/4 138/3/4 141/3/4
f 135/2/4 139/2/4 142/2/4
f 139/3/4 140/3/4 143/3/4
f 142/2/4 139/2/4 143/2/4
f 143/3/4 140/3/4 144/3/4
f 147/2/5 146/2/5 145/2/5
f 148/2/5 146/2/5 147/2/5
f 151/2/5 150/2/5 149/2/5
f 152/2/5 150/2/5 151/2/5
f 155/2/5 154/2/5 153/2/5
f 156/2/5 154/2/5 155/2/5
f 160/2/5 158/2/5 157/2/5
f 161/1/5 159/1/5 158/1/5
f 161/2/5 158/2/5 160/2/5
f 162/1/5 159/1/5 161/1/5
f 165/2/5 164/2/5 163/2/5
f 166/2/5 164/2/5 165/2/5
f 169/3/5 168/3/5 167/3/5
f 170/3/5 168/3/5 169/3/5
f 171/1/6 172/1/6 173/1/6
f 173/1/6 172/1/6 174/1/6
f 171/1/6 173/1/6 175/1/6
f 173/2/6 174/2/6 175/2/6
f 174/1/6 172/1/6 176/1/6
f 175/2/6 174/2/6 176/2/6
f 171/1/6 175/1/6 177/1/6
f 175/1/6 176/1/6 177/1/6
f 176/1/6 172/1/6 178/1/6
f 177/1/6 176/1/6 178/1/6
f 179/3/6 180/3/6 181/3/6
f 181/3/6 180/3/6 182/3/6
f 179/3/6 181/3/6 185/3/6
f 183/2/6 184/2/6 186/2/6
f 184/2/6 185/2/6 186/2/6
f 186/2/6 185/2/6 187/2/6
f 185/3/6 181/3/6 188/3/6
f 187/2/6 185/2/6 188/2/6
f 188/3/6 181/3/6 189/3/6
f 182/3/6 180/3/6 190/3/6
f 188/3/6 189/3/6 191/3/6
f 189/3/6 190/3/6 191/3/6
f 190/3/6 180/3/6 192/3/6
f 191/3/6 190/3/6 192/3/6
f 193/3/6 194/3/6 195/3/6
f 195/3/6 194/3/6 196/3/6
f 197/3/6 198/3/6 199/3/6
f 199/3/6 198/3/6 200/3/6
f 201/2/6 202/2/6 203/2/6
f 203/2/6 202/2/6 204/2/6
f 205/2/6 206/2/6 207/2/6
f 207/2/6 206/2/6 208/2/6
f 209/2/6 210/2/6 211/2/6
f 211/2/6 210/2/6 212/2/6
f 213/2/6 214/2/6 216/2/6
f 214/3/6 215/3/6 217/3/6
f 216/2/6 214/2/6 217/2/6
f 217/3/6 215/3/6 218/3/6
