# MagicaVoxel @ Ephtracy

# group
o 

# material
mtllib FloorTileDark.mtl
usemtl palette

# normals
vn -1 0 0
vn 1 0 0
vn 0 0 1
vn 0 0 -1
vn 0 -1 0
vn 0 1 0

# texcoords
vt 0.306641 0.5
vt 0.958984 0.5
vt 0.986328 0.5
vt 0.990234 0.5
vt 0.994141 0.5

# verts
v -6.4 0 6.4
v -6.4 0 -6.4
v -6.4 0.3 6.4
v -6.4 0.3 -6.4
v -6.4 0.4 6.4
v -6.4 0.4 -6.4
v -5.9 0.3 5.9
v -5.9 0.3 -5.9
v -5.9 0.4 5.9
v -5.9 0.4 -5.9
v 6.2 0.3 6.2
v 6.2 0.3 -6.2
v 6.2 0.4 6.2
v 6.2 0.4 -6.2
v -6.2 0.3 6.2
v -6.2 0.3 -6.2
v -6.2 0.4 6.2
v -6.2 0.4 -6.2
v 5.9 0.3 5.9
v 5.9 0.3 -5.9
v 5.9 0.4 5.9
v 5.9 0.4 -5.9
v 6.4 0 6.4
v 6.4 0 -6.4
v 6.4 0.3 6.4
v 6.4 0.3 -6.4
v 6.4 0.4 6.4
v 6.4 0.4 -6.4
v -6.4 0 6.4
v -6.4 0.3 6.4
v -6.4 0.4 6.4
v 6.4 0 6.4
v 6.4 0.3 6.4
v 6.4 0.4 6.4
v -5.9 0.3 5.9
v -5.9 0.4 5.9
v 5.9 0.3 5.9
v 5.9 0.4 5.9
v -6.2 0.3 -6.2
v -6.2 0.4 -6.2
v 6.2 0.3 -6.2
v 6.2 0.4 -6.2
v -6.2 0.3 6.2
v -6.2 0.4 6.2
v 6.2 0.3 6.2
v 6.2 0.4 6.2
v -5.9 0.3 -5.9
v -5.9 0.4 -5.9
v 5.9 0.3 -5.9
v 5.9 0.4 -5.9
v -6.4 0 -6.4
v -6.4 0.3 -6.4
v -6.4 0.4 -6.4
v 6.4 0 -6.4
v 6.4 0.3 -6.4
v 6.4 0.4 -6.4
v -6.4 0 6.4
v 6.4 0 6.4
v -5.8 0 5.9
v 5.8 0 5.9
v -5.9 0 5.8
v -5.8 0 5.8
v 5.8 0 5.8
v 5.9 0 5.8
v -5.9 0 -5.8
v -5.8 0 -5.8
v 5.8 0 -5.8
v 5.9 0 -5.8
v -5.8 0 -5.9
v 5.8 0 -5.9
v -6.4 0 -6.4
v 6.4 0 -6.4
v -6.2 0.3 6.2
v 6.2 0.3 6.2
v -5.9 0.3 5.9
v 5.9 0.3 5.9
v -5.9 0.3 -5.9
v 5.9 0.3 -5.9
v -6.2 0.3 -6.2
v 6.2 0.3 -6.2
v -6.4 0.4 6.4
v 6.4 0.4 6.4
v -6.2 0.4 6.2
v 6.2 0.4 6.2
v -5.9 0.4 5.9
v 5.9 0.4 5.9
v -5.9 0.4 -5.9
v 5.9 0.4 -5.9
v -6.2 0.4 -6.2
v 6.2 0.4 -6.2
v -6.4 0.4 -6.4
v 6.4 0.4 -6.4

# faces
f 3/3/1 2/3/1 1/3/1
f 4/3/1 2/3/1 3/3/1
f 5/4/1 4/4/1 3/4/1
f 6/4/1 4/4/1 5/4/1
f 9/5/1 8/5/1 7/5/1
f 10/5/1 8/5/1 9/5/1
f 13/4/1 12/4/1 11/4/1
f 14/4/1 12/4/1 13/4/1
f 15/4/2 16/4/2 17/4/2
f 17/4/2 16/4/2 18/4/2
f 19/5/2 20/5/2 21/5/2
f 21/5/2 20/5/2 22/5/2
f 23/3/2 24/3/2 25/3/2
f 25/3/2 24/3/2 26/3/2
f 25/4/2 26/4/2 27/4/2
f 27/4/2 26/4/2 28/4/2
f 32/3/3 30/3/3 29/3/3
f 33/4/3 31/4/3 30/4/3
f 33/3/3 30/3/3 32/3/3
f 34/4/3 31/4/3 33/4/3
f 37/5/3 36/5/3 35/5/3
f 38/5/3 36/5/3 37/5/3
f 41/4/3 40/4/3 39/4/3
f 42/4/3 40/4/3 41/4/3
f 43/4/4 44/4/4 45/4/4
f 45/4/4 44/4/4 46/4/4
f 47/5/4 48/5/4 49/5/4
f 49/5/4 48/5/4 50/5/4
f 51/3/4 52/3/4 54/3/4
f 52/4/4 53/4/4 55/4/4
f 54/3/4 52/3/4 55/3/4
f 55/4/4 53/4/4 56/4/4
f 59/3/5 58/3/5 57/3/5
f 60/3/5 58/3/5 59/3/5
f 61/3/5 59/3/5 57/3/5
f 62/5/5 60/5/5 59/5/5
f 62/3/5 59/3/5 61/3/5
f 63/3/5 58/3/5 60/3/5
f 63/5/5 60/5/5 62/5/5
f 64/3/5 58/3/5 63/3/5
f 65/5/5 62/5/5 61/5/5
f 65/3/5 61/3/5 57/3/5
f 65/5/5 64/5/5 63/5/5
f 65/5/5 63/5/5 62/5/5
f 66/5/5 64/5/5 65/5/5
f 67/5/5 64/5/5 66/5/5
f 68/3/5 58/3/5 64/3/5
f 68/5/5 64/5/5 67/5/5
f 69/5/5 67/5/5 66/5/5
f 69/3/5 66/3/5 65/3/5
f 70/3/5 68/3/5 67/3/5
f 70/5/5 67/5/5 69/5/5
f 71/3/5 65/3/5 57/3/5
f 71/3/5 69/3/5 65/3/5
f 71/3/5 70/3/5 69/3/5
f 72/3/5 58/3/5 68/3/5
f 72/3/5 70/3/5 71/3/5
f 72/3/5 68/3/5 70/3/5
f 73/2/6 74/2/6 75/2/6
f 75/2/6 74/2/6 76/2/6
f 73/2/6 75/2/6 77/2/6
f 76/2/6 74/2/6 78/2/6
f 73/2/6 77/2/6 79/2/6
f 77/2/6 78/2/6 79/2/6
f 78/2/6 74/2/6 80/2/6
f 79/2/6 78/2/6 80/2/6
f 81/4/6 82/4/6 83/4/6
f 83/4/6 82/4/6 84/4/6
f 85/5/6 86/5/6 87/5/6
f 87/5/6 86/5/6 88/5/6
f 81/4/6 83/4/6 89/4/6
f 84/4/6 82/4/6 90/4/6
f 81/4/6 89/4/6 91/4/6
f 89/4/6 90/4/6 91/4/6
f 90/4/6 82/4/6 92/4/6
f 91/4/6 90/4/6 92/4/6
