# MagicaVoxel @ Ephtracy

# group
o 

# material
mtllib WallTile.mtl
usemtl palette

# normals
vn -1 0 0
vn 1 0 0
vn 0 0 1
vn 0 0 -1
vn 0 -1 0
vn 0 1 0

# texcoords
vt 0.958984 0.5
vt 0.974609 0.5
vt 0.986328 0.5
vt 0.990234 0.5

# verts
v -6.4 0 6.4
v -6.4 0 -6.4
v -6.4 12.8 6.4
v -6.4 12.8 -6.4
v -6.2 0.2 6.2
v -6.2 0.2 -6.2
v -6.2 0.5 5.9
v -6.2 0.5 -5.9
v -6.2 12.3 5.9
v -6.2 12.3 -5.9
v -6.2 12.6 6.2
v -6.2 12.6 -6.2
v -6.1 0.1 6.3
v -6.1 0.1 -6.3
v -6.1 0.2 6.2
v -6.1 0.2 -6.2
v -6.1 0.5 5.9
v -6.1 0.5 -5.9
v -6.1 12.3 5.9
v -6.1 12.3 -5.9
v -6.1 12.6 6.2
v -6.1 12.6 -6.2
v -6.1 12.7 6.3
v -6.1 12.7 -6.3
v -6.3 0.1 6.3
v -6.3 0.1 -6.3
v -6.3 12.7 6.3
v -6.3 12.7 -6.3
v -6.1 0.2 6.2
v -6.1 0.2 -6.2
v -6.1 0.5 5.9
v -6.1 0.5 -5.9
v -6.1 12.3 5.9
v -6.1 12.3 -5.9
v -6.1 12.6 6.2
v -6.1 12.6 -6.2
v -6 0 6.4
v -6 0 -6.4
v -6 0.2 6.2
v -6 0.2 -6.2
v -6 0.5 5.9
v -6 0.5 -5.9
v -6 12.3 5.9
v -6 12.3 -5.9
v -6 12.6 6.2
v -6 12.6 -6.2
v -6 12.8 6.4
v -6 12.8 -6.4
v -6.4 0 6.4
v -6.4 12.8 6.4
v -6.1 0 6.4
v -6.1 12.8 6.4
v -6 0 6.4
v -6 12.8 6.4
v -6.2 0.2 6.2
v -6.2 12.6 6.2
v -6.1 0.2 6.2
v -6.1 12.6 6.2
v -6.1 0.5 5.9
v -6.1 12.3 5.9
v -6 0.5 5.9
v -6 12.3 5.9
v -6.2 0.5 -5.9
v -6.2 12.3 -5.9
v -6.1 0.5 -5.9
v -6.1 12.3 -5.9
v -6.1 0.2 -6.2
v -6.1 12.6 -6.2
v -6 0.2 -6.2
v -6 12.6 -6.2
v -6.3 0.1 -6.3
v -6.3 12.7 -6.3
v -6.1 0.1 -6.3
v -6.1 12.7 -6.3
v -6.3 0.1 6.3
v -6.3 12.7 6.3
v -6.1 0.1 6.3
v -6.1 12.7 6.3
v -6.1 0.2 6.2
v -6.1 12.6 6.2
v -6 0.2 6.2
v -6 12.6 6.2
v -6.2 0.5 5.9
v -6.2 12.3 5.9
v -6.1 0.5 5.9
v -6.1 12.3 5.9
v -6.1 0.5 -5.9
v -6.1 12.3 -5.9
v -6 0.5 -5.9
v -6 12.3 -5.9
v -6.2 0.2 -6.2
v -6.2 12.6 -6.2
v -6.1 0.2 -6.2
v -6.1 12.6 -6.2
v -6.4 0 -6.4
v -6.4 12.8 -6.4
v -6.1 0 -6.4
v -6.1 12.8 -6.4
v -6 0 -6.4
v -6 12.8 -6.4
v -6.4 0 6.4
v -6.1 0 6.4
v -6 0 6.4
v -6.4 0 -6.4
v -6.1 0 -6.4
v -6 0 -6.4
v -6.2 0.2 6.2
v -6.1 0.2 6.2
v -6.2 0.2 -6.2
v -6.1 0.2 -6.2
v -6.1 0.5 5.9
v -6 0.5 5.9
v -6.1 0.5 -5.9
v -6 0.5 -5.9
v -6.2 12.3 5.9
v -6.1 12.3 5.9
v -6.2 12.3 -5.9
v -6.1 12.3 -5.9
v -6.1 12.6 6.2
v -6 12.6 6.2
v -6.1 12.6 -6.2
v -6 12.6 -6.2
v -6.3 12.7 6.3
v -6.1 12.7 6.3
v -6.3 12.7 -6.3
v -6.1 12.7 -6.3
v -6.3 0.1 6.3
v -6.1 0.1 6.3
v -6.3 0.1 -6.3
v -6.1 0.1 -6.3
v -6.1 0.2 6.2
v -6 0.2 6.2
v -6.1 0.2 -6.2
v -6 0.2 -6.2
v -6.2 0.5 5.9
v -6.1 0.5 5.9
v -6.2 0.5 -5.9
v -6.1 0.5 -5.9
v -6.1 12.3 5.9
v -6 12.3 5.9
v -6.1 12.3 -5.9
v -6 12.3 -5.9
v -6.2 12.6 6.2
v -6.1 12.6 6.2
v -6.2 12.6 -6.2
v -6.1 12.6 -6.2
v -6.4 12.8 6.4
v -6.1 12.8 6.4
v -6 12.8 6.4
v -6.4 12.8 -6.4
v -6.1 12.8 -6.4
v -6 12.8 -6.4

# faces
f 3/3/1 2/3/1 1/3/1
f 4/3/1 2/3/1 3/3/1
f 7/1/1 6/1/1 5/1/1
f 8/1/1 6/1/1 7/1/1
f 9/1/1 7/1/1 5/1/1
f 10/1/1 6/1/1 8/1/1
f 11/1/1 9/1/1 5/1/1
f 11/1/1 10/1/1 9/1/1
f 12/1/1 6/1/1 10/1/1
f 12/1/1 10/1/1 11/1/1
f 15/4/1 14/4/1 13/4/1
f 16/4/1 14/4/1 15/4/1
f 19/2/1 18/2/1 17/2/1
f 20/2/1 18/2/1 19/2/1
f 21/4/1 15/4/1 13/4/1
f 22/4/1 14/4/1 16/4/1
f 23/4/1 21/4/1 13/4/1
f 23/4/1 22/4/1 21/4/1
f 24/4/1 14/4/1 22/4/1
f 24/4/1 22/4/1 23/4/1
f 25/3/2 26/3/2 27/3/2
f 27/3/2 26/3/2 28/3/2
f 29/1/2 30/1/2 31/1/2
f 31/1/2 30/1/2 32/1/2
f 29/1/2 31/1/2 33/1/2
f 32/1/2 30/1/2 34/1/2
f 29/1/2 33/1/2 35/1/2
f 33/1/2 34/1/2 35/1/2
f 34/1/2 30/1/2 36/1/2
f 35/1/2 34/1/2 36/1/2
f 37/4/2 38/4/2 39/4/2
f 39/4/2 38/4/2 40/4/2
f 41/2/2 42/2/2 43/2/2
f 43/2/2 42/2/2 44/2/2
f 37/4/2 39/4/2 45/4/2
f 40/4/2 38/4/2 46/4/2
f 37/4/2 45/4/2 47/4/2
f 45/4/2 46/4/2 47/4/2
f 46/4/2 38/4/2 48/4/2
f 47/4/2 46/4/2 48/4/2
f 51/3/3 50/3/3 49/3/3
f 52/3/3 50/3/3 51/3/3
f 53/4/3 52/4/3 51/4/3
f 54/4/3 52/4/3 53/4/3
f 57/1/3 56/1/3 55/1/3
f 58/1/3 56/1/3 57/1/3
f 61/2/3 60/2/3 59/2/3
f 62/2/3 60/2/3 61/2/3
f 65/1/3 64/1/3 63/1/3
f 66/1/3 64/1/3 65/1/3
f 69/4/3 68/4/3 67/4/3
f 70/4/3 68/4/3 69/4/3
f 73/3/3 72/3/3 71/3/3
f 74/3/3 72/3/3 73/3/3
f 75/3/4 76/3/4 77/3/4
f 77/3/4 76/3/4 78/3/4
f 79/4/4 80/4/4 81/4/4
f 81/4/4 80/4/4 82/4/4
f 83/1/4 84/1/4 85/1/4
f 85/1/4 84/1/4 86/1/4
f 87/2/4 88/2/4 89/2/4
f 89/2/4 88/2/4 90/2/4
f 91/1/4 92/1/4 93/1/4
f 93/1/4 92/1/4 94/1/4
f 95/3/4 96/3/4 97/3/4
f 97/3/4 96/3/4 98/3/4
f 97/4/4 98/4/4 99/4/4
f 99/4/4 98/4/4 100/4/4
f 104/3/5 102/3/5 101/3/5
f 105/4/5 103/4/5 102/4/5
f 105/3/5 102/3/5 104/3/5
f 106/4/5 103/4/5 105/4/5
f 109/1/5 108/1/5 107/1/5
f 110/1/5 108/1/5 109/1/5
f 113/2/5 112/2/5 111/2/5
f 114/2/5 112/2/5 113/2/5
f 117/1/5 116/1/5 115/1/5
f 118/1/5 116/1/5 117/1/5
f 121/4/5 120/4/5 119/4/5
f 122/4/5 120/4/5 121/4/5
f 125/3/5 124/3/5 123/3/5
f 126/3/5 124/3/5 125/3/5
f 127/3/6 128/3/6 129/3/6
f 129/3/6 128/3/6 130/3/6
f 131/4/6 132/4/6 133/4/6
f 133/4/6 132/4/6 134/4/6
f 135/1/6 136/1/6 137/1/6
f 137/1/6 136/1/6 138/1/6
f 139/2/6 140/2/6 141/2/6
f 141/2/6 140/2/6 142/2/6
f 143/1/6 144/1/6 145/1/6
f 145/1/6 144/1/6 146/1/6
f 147/3/6 148/3/6 150/3/6
f 148/4/6 149/4/6 151/4/6
f 150/3/6 148/3/6 151/3/6
f 151/4/6 149/4/6 152/4/6
