# MagicaVoxel @ Ephtracy

# group
o 

# material
mtllib WallCornerTile.mtl
usemtl palette

# normals
vn -1 0 0
vn 1 0 0
vn 0 0 1
vn 0 0 -1
vn 0 -1 0
vn 0 1 0

# texcoords
vt 0.958984 0.5
vt 0.986328 0.5
vt 0.990234 0.5

# verts
v -6.4 0 6.4
v -6.4 0 -6.4
v -6.4 12.8 6.4
v -6.4 12.8 -6.4
v -6.2 0.2 6.2
v -6.2 0.2 -5.8
v -6.2 0.5 5.9
v -6.2 0.5 -5.5
v -6.2 12.3 5.9
v -6.2 12.3 -5.5
v -6.2 12.6 6.2
v -6.2 12.6 -5.8
v -6.1 0.1 6.3
v -6.1 0.1 -6
v -6.1 0.2 6.2
v -6.1 0.2 -5.8
v -6.1 0.5 5.9
v -6.1 0.5 -5.5
v -6.1 12.3 5.9
v -6.1 12.3 -5.5
v -6.1 12.6 6.2
v -6.1 12.6 -5.8
v -6.1 12.7 6.3
v -6.1 12.7 -6
v -6 0.1 -6
v -6 0.1 -6.1
v -6 12.7 -6
v -6 12.7 -6.1
v -5.8 0.2 -6.1
v -5.8 0.2 -6.2
v -5.8 12.6 -6.1
v -5.8 12.6 -6.2
v -5.5 0.5 -6
v -5.5 0.5 -6.1
v -5.5 12.3 -6
v -5.5 12.3 -6.1
v 5.9 0.1 -6.1
v 5.9 0.1 -6.2
v 5.9 0.2 -6.1
v 5.9 0.2 -6.2
v 5.9 0.5 -6.1
v 5.9 0.5 -6.2
v 5.9 12.3 -6.1
v 5.9 12.3 -6.2
v 6.2 0.1 -6
v 6.2 0.1 -6.1
v 6.2 12.6 -6
v 6.2 12.6 -6.1
v 6.3 0.1 -6.1
v 6.3 0.1 -6.3
v 6.3 12.7 -6.1
v 6.3 12.7 -6.3
v -6.3 0.1 6.3
v -6.3 0.1 -6.3
v -6.3 12.7 6.3
v -6.3 12.7 -6.3
v -6.1 0.2 6.2
v -6.1 0.2 -5.8
v -6.1 0.5 5.9
v -6.1 0.5 -5.5
v -6.1 12.3 5.9
v -6.1 12.3 -5.5
v -6.1 12.6 6.2
v -6.1 12.6 -5.8
v -6 0 6.4
v -6 0 -6
v -6 0.2 6.2
v -6 0.2 -5.8
v -6 0.5 5.9
v -6 0.5 -5.5
v -6 12.3 5.9
v -6 12.3 -5.5
v -6 12.6 6.2
v -6 12.6 -5.8
v -6 12.8 6.4
v -6 12.8 -6
v -5.8 0.2 -6
v -5.8 0.2 -6.1
v -5.8 12.6 -6
v -5.8 12.6 -6.1
v -5.5 0.5 -6.1
v -5.5 0.5 -6.2
v -5.5 12.3 -6.1
v -5.5 12.3 -6.2
v 5.9 0.1 -6
v 5.9 0.1 -6.1
v 5.9 0.2 -6
v 5.9 0.2 -6.1
v 5.9 0.5 -6
v 5.9 0.5 -6.1
v 5.9 12.3 -6
v 5.9 12.3 -6.1
v 6.2 0.1 -6.1
v 6.2 0.1 -6.2
v 6.2 12.6 -6.1
v 6.2 12.6 -6.2
v 6.4 0 -6
v 6.4 0 -6.1
v 6.4 0 -6.4
v 6.4 12.8 -6
v 6.4 12.8 -6.1
v 6.4 12.8 -6.4
v -6.4 0 6.4
v -6.4 12.8 6.4
v -6.1 0 6.4
v -6.1 12.8 6.4
v -6 0 6.4
v -6 12.8 6.4
v -6.2 0.2 6.2
v -6.2 12.6 6.2
v -6.1 0.2 6.2
v -6.1 12.6 6.2
v -6.1 0.5 5.9
v -6.1 12.3 5.9
v -6 0.5 5.9
v -6 12.3 5.9
v -6.2 0.5 -5.5
v -6.2 12.3 -5.5
v -6.1 0.5 -5.5
v -6.1 12.3 -5.5
v -6.1 0.2 -5.8
v -6.1 12.6 -5.8
v -6 0.2 -5.8
v -6 12.6 -5.8
v -6 0 -6
v -6 12.8 -6
v -5.8 0.2 -6
v -5.8 12.6 -6
v -5.5 0.5 -6
v -5.5 12.3 -6
v 5.9 0.1 -6
v 5.9 0.2 -6
v 5.9 0.5 -6
v 5.9 12.3 -6
v 6.2 0.1 -6
v 6.2 12.6 -6
v 6.4 0 -6
v 6.4 12.8 -6
v -5.8 0.2 -6.1
v -5.8 12.6 -6.1
v -5.5 0.5 -6.1
v -5.5 12.3 -6.1
v 5.9 0.1 -6.1
v 5.9 0.2 -6.1
v 5.9 0.5 -6.1
v 5.9 12.3 -6.1
v 6.2 0.1 -6.1
v 6.2 12.6 -6.1
v -6.3 0.1 -6.3
v -6.3 12.7 -6.3
v 6.3 0.1 -6.3
v 6.3 12.7 -6.3
v -6.3 0.1 6.3
v -6.3 12.7 6.3
v -6.1 0.1 6.3
v -6.1 12.7 6.3
v -6.1 0.2 6.2
v -6.1 12.6 6.2
v -6 0.2 6.2
v -6 12.6 6.2
v -6.2 0.5 5.9
v -6.2 12.3 5.9
v -6.1 0.5 5.9
v -6.1 12.3 5.9
v -6.1 0.5 -5.5
v -6.1 12.3 -5.5
v -6 0.5 -5.5
v -6 12.3 -5.5
v -6.2 0.2 -5.8
v -6.2 12.6 -5.8
v -6.1 0.2 -5.8
v -6.1 12.6 -5.8
v -6.1 0.1 -6
v -6.1 12.7 -6
v -6 0.1 -6
v -6 12.7 -6
v -6 0.1 -6.1
v -6 12.7 -6.1
v -5.8 0.2 -6.1
v -5.8 12.6 -6.1
v -5.5 0.5 -6.1
v -5.5 12.3 -6.1
v 5.9 0.1 -6.1
v 5.9 0.2 -6.1
v 5.9 0.5 -6.1
v 5.9 12.3 -6.1
v 6.2 0.1 -6.1
v 6.2 12.6 -6.1
v 6.3 0.1 -6.1
v 6.3 12.7 -6.1
v -5.8 0.2 -6.2
v -5.8 12.6 -6.2
v -5.5 0.5 -6.2
v -5.5 12.3 -6.2
v 5.9 0.1 -6.2
v 5.9 0.2 -6.2
v 5.9 0.5 -6.2
v 5.9 12.3 -6.2
v 6.2 0.1 -6.2
v 6.2 12.6 -6.2
v -6.4 0 -6.4
v -6.4 12.8 -6.4
v 6.4 0 -6.4
v 6.4 12.8 -6.4
v -6.4 0 6.4
v -6.1 0 6.4
v -6 0 6.4
v -6.1 0 -6
v -6 0 -6
v 6.4 0 -6
v -6 0 -6.1
v 6.4 0 -6.1
v -6.4 0 -6.4
v 6.4 0 -6.4
v -6.2 0.2 6.2
v -6.1 0.2 6.2
v -6.2 0.2 -5.8
v -6.1 0.2 -5.8
v -5.8 0.2 -6.1
v 5.9 0.2 -6.1
v -5.8 0.2 -6.2
v 5.9 0.2 -6.2
v -6.1 0.5 5.9
v -6 0.5 5.9
v -6.1 0.5 -5.5
v -6 0.5 -5.5
v -5.5 0.5 -6
v 5.9 0.5 -6
v -5.5 0.5 -6.1
v 5.9 0.5 -6.1
v -6.2 12.3 5.9
v -6.1 12.3 5.9
v -6.2 12.3 -5.5
v -6.1 12.3 -5.5
v -5.5 12.3 -6.1
v 5.9 12.3 -6.1
v -5.5 12.3 -6.2
v 5.9 12.3 -6.2
v -6.1 12.6 6.2
v -6 12.6 6.2
v -6.1 12.6 -5.8
v -6 12.6 -5.8
v -5.8 12.6 -6
v 6.2 12.6 -6
v -5.8 12.6 -6.1
v 6.2 12.6 -6.1
v -6.3 12.7 6.3
v -6.1 12.7 6.3
v -6.1 12.7 -6
v -6 12.7 -6
v -6.1 12.7 -6.1
v -6 12.7 -6.1
v 6.3 12.7 -6.1
v -6.3 12.7 -6.3
v 6.3 12.7 -6.3
v -6.3 0.1 6.3
v -6.1 0.1 6.3
v -6.1 0.1 -6
v -6 0.1 -6
v 5.9 0.1 -6
v 6.2 0.1 -6
v -6 0.1 -6.1
v 5.9 0.1 -6.1
v 6.2 0.1 -6.1
v 6.3 0.1 -6.1
v 5.9 0.1 -6.2
v 6.2 0.1 -6.2
v -6.3 0.1 -6.3
v 6.3 0.1 -6.3
v -6.1 0.2 6.2
v -6 0.2 6.2
v -6.1 0.2 -5.8
v -6 0.2 -5.8
v -5.8 0.2 -6
v 5.9 0.2 -6
v -5.8 0.2 -6.1
v 5.9 0.2 -6.1
v -6.2 0.5 5.9
v -6.1 0.5 5.9
v -6.2 0.5 -5.5
v -6.1 0.5 -5.5
v -5.5 0.5 -6.1
v 5.9 0.5 -6.1
v -5.5 0.5 -6.2
v 5.9 0.5 -6.2
v -6.1 12.3 5.9
v -6 12.3 5.9
v -6.1 12.3 -5.5
v -6 12.3 -5.5
v -5.5 12.3 -6
v 5.9 12.3 -6
v -5.5 12.3 -6.1
v 5.9 12.3 -6.1
v -6.2 12.6 6.2
v -6.1 12.6 6.2
v -6.2 12.6 -5.8
v -6.1 12.6 -5.8
v -5.8 12.6 -6.1
v 6.2 12.6 -6.1
v -5.8 12.6 -6.2
v 6.2 12.6 -6.2
v -6.4 12.8 6.4
v -6.1 12.8 6.4
v -6 12.8 6.4
v -6 12.8 -6
v 6.4 12.8 -6
v -6.1 12.8 -6.1
v 6.4 12.8 -6.1
v -6.4 12.8 -6.4
v 6.4 12.8 -6.4

# faces
f 3/2/1 2/2/1 1/2/1
f 4/2/1 2/2/1 3/2/1
f 7/1/1 6/1/1 5/1/1
f 8/1/1 6/1/1 7/1/1
f 9/1/1 7/1/1 5/1/1
f 10/1/1 6/1/1 8/1/1
f 11/1/1 9/1/1 5/1/1
f 11/1/1 10/1/1 9/1/1
f 12/1/1 6/1/1 10/1/1
f 12/1/1 10/1/1 11/1/1
f 15/3/1 14/3/1 13/3/1
f 16/3/1 14/3/1 15/3/1
f 19/2/1 18/2/1 17/2/1
f 20/2/1 18/2/1 19/2/1
f 21/3/1 15/3/1 13/3/1
f 22/3/1 14/3/1 16/3/1
f 23/3/1 21/3/1 13/3/1
f 23/3/1 22/3/1 21/3/1
f 24/3/1 14/3/1 22/3/1
f 24/3/1 22/3/1 23/3/1
f 27/3/1 26/3/1 25/3/1
f 28/3/1 26/3/1 27/3/1
f 31/1/1 30/1/1 29/1/1
f 32/1/1 30/1/1 31/1/1
f 35/2/1 34/2/1 33/2/1
f 36/2/1 34/2/1 35/2/1
f 39/1/1 38/1/1 37/1/1
f 40/1/1 38/1/1 39/1/1
f 43/1/1 42/1/1 41/1/1
f 44/1/1 42/1/1 43/1/1
f 47/3/1 46/3/1 45/3/1
f 48/3/1 46/3/1 47/3/1
f 51/2/1 50/2/1 49/2/1
f 52/2/1 50/2/1 51/2/1
f 53/2/2 54/2/2 55/2/2
f 55/2/2 54/2/2 56/2/2
f 57/1/2 58/1/2 59/1/2
f 59/1/2 58/1/2 60/1/2
f 57/1/2 59/1/2 61/1/2
f 60/1/2 58/1/2 62/1/2
f 57/1/2 61/1/2 63/1/2
f 61/1/2 62/1/2 63/1/2
f 62/1/2 58/1/2 64/1/2
f 63/1/2 62/1/2 64/1/2
f 65/3/2 66/3/2 67/3/2
f 67/3/2 66/3/2 68/3/2
f 69/2/2 70/2/2 71/2/2
f 71/2/2 70/2/2 72/2/2
f 65/3/2 67/3/2 73/3/2
f 68/3/2 66/3/2 74/3/2
f 65/3/2 73/3/2 75/3/2
f 73/3/2 74/3/2 75/3/2
f 74/3/2 66/3/2 76/3/2
f 75/3/2 74/3/2 76/3/2
f 77/3/2 78/3/2 79/3/2
f 79/3/2 78/3/2 80/3/2
f 81/1/2 82/1/2 83/1/2
f 83/1/2 82/1/2 84/1/2
f 85/3/2 86/3/2 87/3/2
f 87/3/2 86/3/2 88/3/2
f 89/2/2 90/2/2 91/2/2
f 91/2/2 90/2/2 92/2/2
f 93/1/2 94/1/2 95/1/2
f 95/1/2 94/1/2 96/1/2
f 97/3/2 98/3/2 100/3/2
f 98/2/2 99/2/2 101/2/2
f 100/3/2 98/3/2 101/3/2
f 101/2/2 99/2/2 102/2/2
f 105/2/3 104/2/3 103/2/3
f 106/2/3 104/2/3 105/2/3
f 107/3/3 106/3/3 105/3/3
f 108/3/3 106/3/3 107/3/3
f 111/1/3 110/1/3 109/1/3
f 112/1/3 110/1/3 111/1/3
f 115/2/3 114/2/3 113/2/3
f 116/2/3 114/2/3 115/2/3
f 119/1/3 118/1/3 117/1/3
f 120/1/3 118/1/3 119/1/3
f 123/3/3 122/3/3 121/3/3
f 124/3/3 122/3/3 123/3/3
f 127/3/3 126/3/3 125/3/3
f 128/3/3 126/3/3 127/3/3
f 131/3/3 127/3/3 125/3/3
f 132/3/3 127/3/3 131/3/3
f 133/2/3 130/2/3 129/2/3
f 134/2/3 130/2/3 133/2/3
f 135/3/3 131/3/3 125/3/3
f 136/3/3 126/3/3 128/3/3
f 137/3/3 135/3/3 125/3/3
f 137/3/3 136/3/3 135/3/3
f 138/3/3 126/3/3 136/3/3
f 138/3/3 136/3/3 137/3/3
f 141/1/3 140/1/3 139/1/3
f 142/1/3 140/1/3 141/1/3
f 144/1/3 141/1/3 139/1/3
f 145/1/3 141/1/3 144/1/3
f 146/1/3 140/1/3 142/1/3
f 147/1/3 145/1/3 144/1/3
f 147/1/3 146/1/3 145/1/3
f 147/1/3 144/1/3 143/1/3
f 148/1/3 140/1/3 146/1/3
f 148/1/3 146/1/3 147/1/3
f 151/2/3 150/2/3 149/2/3
f 152/2/3 150/2/3 151/2/3
f 153/2/4 154/2/4 155/2/4
f 155/2/4 154/2/4 156/2/4
f 157/3/4 158/3/4 159/3/4
f 159/3/4 158/3/4 160/3/4
f 161/1/4 162/1/4 163/1/4
f 163/1/4 162/1/4 164/1/4
f 165/2/4 166/2/4 167/2/4
f 167/2/4 166/2/4 168/2/4
f 169/1/4 170/1/4 171/1/4
f 171/1/4 170/1/4 172/1/4
f 173/3/4 174/3/4 175/3/4
f 175/3/4 174/3/4 176/3/4
f 177/3/4 178/3/4 179/3/4
f 179/3/4 178/3/4 180/3/4
f 177/3/4 179/3/4 183/3/4
f 183/3/4 179/3/4 184/3/4
f 181/2/4 182/2/4 185/2/4
f 185/2/4 182/2/4 186/2/4
f 180/3/4 178/3/4 188/3/4
f 187/3/4 188/3/4 189/3/4
f 188/3/4 178/3/4 190/3/4
f 189/3/4 188/3/4 190/3/4
f 191/1/4 192/1/4 193/1/4
f 193/1/4 192/1/4 194/1/4
f 191/1/4 193/1/4 196/1/4
f 196/1/4 193/1/4 197/1/4
f 194/1/4 192/1/4 198/1/4
f 196/1/4 197/1/4 199/1/4
f 197/1/4 198/1/4 199/1/4
f 195/1/4 196/1/4 199/1/4
f 198/1/4 192/1/4 200/1/4
f 199/1/4 198/1/4 200/1/4
f 201/2/4 202/2/4 203/2/4
f 203/2/4 202/2/4 204/2/4
f 208/2/5 206/2/5 205/2/5
f 208/3/5 207/3/5 206/3/5
f 209/3/5 207/3/5 208/3/5
f 211/2/5 209/2/5 208/2/5
f 211/3/5 210/3/5 209/3/5
f 212/3/5 210/3/5 211/3/5
f 213/2/5 208/2/5 205/2/5
f 213/2/5 211/2/5 208/2/5
f 213/2/5 212/2/5 211/2/5
f 214/2/5 212/2/5 213/2/5
f 217/1/5 216/1/5 215/1/5
f 218/1/5 216/1/5 217/1/5
f 221/1/5 220/1/5 219/1/5
f 222/1/5 220/1/5 221/1/5
f 225/2/5 224/2/5 223/2/5
f 226/2/5 224/2/5 225/2/5
f 229/2/5 228/2/5 227/2/5
f 230/2/5 228/2/5 229/2/5
f 233/1/5 232/1/5 231/1/5
f 234/1/5 232/1/5 233/1/5
f 237/1/5 236/1/5 235/1/5
f 238/1/5 236/1/5 237/1/5
f 241/3/5 240/3/5 239/3/5
f 242/3/5 240/3/5 241/3/5
f 245/3/5 244/3/5 243/3/5
f 246/3/5 244/3/5 245/3/5
f 249/2/5 248/2/5 247/2/5
f 251/2/5 249/2/5 247/2/5
f 251/3/5 250/3/5 249/3/5
f 252/3/5 250/3/5 251/3/5
f 254/2/5 251/2/5 247/2/5
f 254/2/5 253/2/5 252/2/5
f 254/2/5 252/2/5 251/2/5
f 255/2/5 253/2/5 254/2/5
f 256/2/6 257/2/6 258/2/6
f 258/2/6 259/2/6 262/2/6
f 260/3/6 261/3/6 263/3/6
f 263/3/6 261/3/6 264/3/6
f 262/2/6 263/2/6 266/2/6
f 264/2/6 265/2/6 267/2/6
f 256/2/6 258/2/6 268/2/6
f 266/2/6 267/2/6 268/2/6
f 258/2/6 262/2/6 268/2/6
f 262/2/6 266/2/6 268/2/6
f 267/2/6 265/2/6 269/2/6
f 268/2/6 267/2/6 269/2/6
f 270/3/6 271/3/6 272/3/6
f 272/3/6 271/3/6 273/3/6
f 274/3/6 275/3/6 276/3/6
f 276/3/6 275/3/6 277/3/6
f 278/1/6 279/1/6 280/1/6
f 280/1/6 279/1/6 281/1/6
f 282/1/6 283/1/6 284/1/6
f 284/1/6 283/1/6 285/1/6
f 286/2/6 287/2/6 288/2/6
f 288/2/6 287/2/6 289/2/6
f 290/2/6 291/2/6 292/2/6
f 292/2/6 291/2/6 293/2/6
f 294/1/6 295/1/6 296/1/6
f 296/1/6 295/1/6 297/1/6
f 298/1/6 299/1/6 300/1/6
f 300/1/6 299/1/6 301/1/6
f 303/3/6 304/3/6 305/3/6
f 302/2/6 303/2/6 307/2/6
f 305/3/6 306/3/6 307/3/6
f 303/3/6 305/3/6 307/3/6
f 307/3/6 306/3/6 308/3/6
f 302/2/6 307/2/6 309/2/6
f 307/2/6 308/2/6 309/2/6
f 309/2/6 308/2/6 310/2/6
