# MagicaVoxel @ Ephtracy

# group
o 

# material
mtllib WallTile.mtl
usemtl palette

# normals
vn -1 0 0
vn 1 0 0
vn 0 0 1
vn 0 0 -1
vn 0 -1 0
vn 0 1 0

# texcoords
vt 0.306641 0.5
vt 0.958984 0.5
vt 0.986328 0.5
vt 0.990234 0.5

# verts
v -6.4 -0.2 6.4
v -6.4 -0.2 -6.4
v -6.4 12.6 6.4
v -6.4 12.6 -6.4
v -5.5 0.1 5.9
v -5.5 0.1 -5.9
v -5.5 0.2 5.9
v -5.5 0.2 -5.9
v 6.2 0.1 6.2
v 6.2 0.1 -6.2
v 6.2 0.2 6.2
v 6.2 0.2 -6.2
v -6.1 0.3 6.2
v -6.1 0.3 -6.2
v -6.1 0.6 5.9
v -6.1 0.6 -5.9
v -6.1 12.1 5.9
v -6.1 12.1 -5.9
v -6.1 12.4 6.2
v -6.1 12.4 -6.2
v -6 0.2 6.4
v -6 0.2 -6.4
v -6 0.3 6.2
v -6 0.3 -6.2
v -6 0.6 5.9
v -6 0.6 -5.9
v -6 12.1 5.9
v -6 12.1 -5.9
v -6 12.4 6.2
v -6 12.4 -6.2
v -6 12.6 6.4
v -6 12.6 -6.4
v -5.8 0.1 6.2
v -5.8 0.1 -6.2
v -5.8 0.2 6.2
v -5.8 0.2 -6.2
v 5.9 0.1 5.9
v 5.9 0.1 -5.9
v 5.9 0.2 5.9
v 5.9 0.2 -5.9
v 6.4 -0.2 6.4
v 6.4 -0.2 -6.4
v 6.4 0.1 6.4
v 6.4 0.1 -6.4
v 6.4 0.2 6.4
v 6.4 0.2 -6.4
v -6.4 -0.2 6.4
v -6.4 12.6 6.4
v -6.1 0.1 6.4
v -6.1 12.6 6.4
v -6 0.2 6.4
v -6 12.6 6.4
v 6.4 -0.2 6.4
v 6.4 0.1 6.4
v 6.4 0.2 6.4
v -6.1 0.6 5.9
v -6.1 12.1 5.9
v -6 0.6 5.9
v -6 12.1 5.9
v -5.5 0.1 5.9
v -5.5 0.2 5.9
v 5.9 0.1 5.9
v 5.9 0.2 5.9
v -6.1 0.3 -6.2
v -6.1 12.4 -6.2
v -6 0.3 -6.2
v -6 12.4 -6.2
v -5.8 0.1 -6.2
v -5.8 0.2 -6.2
v 6.2 0.1 -6.2
v 6.2 0.2 -6.2
v -6.1 0.3 6.2
v -6.1 12.4 6.2
v -6 0.3 6.2
v -6 12.4 6.2
v -5.8 0.1 6.2
v -5.8 0.2 6.2
v 6.2 0.1 6.2
v 6.2 0.2 6.2
v -6.1 0.6 -5.9
v -6.1 12.1 -5.9
v -6 0.6 -5.9
v -6 12.1 -5.9
v -5.5 0.1 -5.9
v -5.5 0.2 -5.9
v 5.9 0.1 -5.9
v 5.9 0.2 -5.9
v -6.4 -0.2 -6.4
v -6.4 12.6 -6.4
v -6.1 0.1 -6.4
v -6.1 12.6 -6.4
v -6 0.2 -6.4
v -6 12.6 -6.4
v 6.4 -0.2 -6.4
v 6.4 0.1 -6.4
v 6.4 0.2 -6.4
v -6.4 -0.2 6.4
v 6.4 -0.2 6.4
v -6.4 -0.2 -6.4
v 6.4 -0.2 -6.4
v -6.1 0.6 5.9
v -6 0.6 5.9
v -6.1 0.6 -5.9
v -6 0.6 -5.9
v -6.1 12.4 6.2
v -6 12.4 6.2
v -6.1 12.4 -6.2
v -6 12.4 -6.2
v -5.8 0.1 6.2
v 6.2 0.1 6.2
v -5.5 0.1 5.9
v 5.9 0.1 5.9
v -5.5 0.1 -5.9
v 5.9 0.1 -5.9
v -5.8 0.1 -6.2
v 6.2 0.1 -6.2
v -6 0.2 6.4
v 6.4 0.2 6.4
v -5.8 0.2 6.2
v 6.2 0.2 6.2
v -5.5 0.2 5.9
v 5.9 0.2 5.9
v -5.5 0.2 -5.9
v 5.9 0.2 -5.9
v -5.8 0.2 -6.2
v 6.2 0.2 -6.2
v -6 0.2 -6.4
v 6.4 0.2 -6.4
v -6.1 0.3 6.2
v -6 0.3 6.2
v -6.1 0.3 -6.2
v -6 0.3 -6.2
v -6.1 12.1 5.9
v -6 12.1 5.9
v -6.1 12.1 -5.9
v -6 12.1 -5.9
v -6.4 12.6 6.4
v -6.1 12.6 6.4
v -6 12.6 6.4
v -6.4 12.6 -6.4
v -6.1 12.6 -6.4
v -6 12.6 -6.4

# faces
f 3/3/1 2/3/1 1/3/1
f 4/3/1 2/3/1 3/3/1
f 7/3/1 6/3/1 5/3/1
f 8/3/1 6/3/1 7/3/1
f 11/4/1 10/4/1 9/4/1
f 12/4/1 10/4/1 11/4/1
f 13/2/2 14/2/2 15/2/2
f 15/2/2 14/2/2 16/2/2
f 13/2/2 15/2/2 17/2/2
f 16/2/2 14/2/2 18/2/2
f 13/2/2 17/2/2 19/2/2
f 17/2/2 18/2/2 19/2/2
f 18/2/2 14/2/2 20/2/2
f 19/2/2 18/2/2 20/2/2
f 21/4/2 22/4/2 23/4/2
f 23/4/2 22/4/2 24/4/2
f 25/3/2 26/3/2 27/3/2
f 27/3/2 26/3/2 28/3/2
f 21/4/2 23/4/2 29/4/2
f 24/4/2 22/4/2 30/4/2
f 21/4/2 29/4/2 31/4/2
f 29/4/2 30/4/2 31/4/2
f 30/4/2 22/4/2 32/4/2
f 31/4/2 30/4/2 32/4/2
f 33/4/2 34/4/2 35/4/2
f 35/4/2 34/4/2 36/4/2
f 37/3/2 38/3/2 39/3/2
f 39/3/2 38/3/2 40/3/2
f 41/3/2 42/3/2 43/3/2
f 43/3/2 42/3/2 44/3/2
f 43/4/2 44/4/2 45/4/2
f 45/4/2 44/4/2 46/4/2
f 49/3/3 48/3/3 47/3/3
f 50/3/3 48/3/3 49/3/3
f 51/4/3 50/4/3 49/4/3
f 52/4/3 50/4/3 51/4/3
f 53/3/3 49/3/3 47/3/3
f 54/4/3 51/4/3 49/4/3
f 54/3/3 49/3/3 53/3/3
f 55/4/3 51/4/3 54/4/3
f 58/3/3 57/3/3 56/3/3
f 59/3/3 57/3/3 58/3/3
f 62/3/3 61/3/3 60/3/3
f 63/3/3 61/3/3 62/3/3
f 66/4/3 65/4/3 64/4/3
f 67/4/3 65/4/3 66/4/3
f 70/4/3 69/4/3 68/4/3
f 71/4/3 69/4/3 70/4/3
f 72/4/4 73/4/4 74/4/4
f 74/4/4 73/4/4 75/4/4
f 76/4/4 77/4/4 78/4/4
f 78/4/4 77/4/4 79/4/4
f 80/3/4 81/3/4 82/3/4
f 82/3/4 81/3/4 83/3/4
f 84/3/4 85/3/4 86/3/4
f 86/3/4 85/3/4 87/3/4
f 88/3/4 89/3/4 90/3/4
f 90/3/4 89/3/4 91/3/4
f 90/4/4 91/4/4 92/4/4
f 92/4/4 91/4/4 93/4/4
f 88/3/4 90/3/4 94/3/4
f 90/4/4 92/4/4 95/4/4
f 94/3/4 90/3/4 95/3/4
f 95/4/4 92/4/4 96/4/4
f 99/3/5 98/3/5 97/3/5
f 100/3/5 98/3/5 99/3/5
f 103/3/5 102/3/5 101/3/5
f 104/3/5 102/3/5 103/3/5
f 107/4/5 106/4/5 105/4/5
f 108/4/5 106/4/5 107/4/5
f 109/2/6 110/2/6 111/2/6
f 111/2/6 110/2/6 112/2/6
f 109/2/6 111/2/6 113/2/6
f 112/2/6 110/2/6 114/2/6
f 109/2/6 113/2/6 115/2/6
f 113/2/6 114/2/6 115/2/6
f 114/2/6 110/2/6 116/2/6
f 115/2/6 114/2/6 116/2/6
f 117/4/6 118/4/6 119/4/6
f 119/4/6 118/4/6 120/4/6
f 121/3/6 122/3/6 123/3/6
f 123/3/6 122/3/6 124/3/6
f 117/4/6 119/4/6 125/4/6
f 120/4/6 118/4/6 126/4/6
f 117/4/6 125/4/6 127/4/6
f 125/4/6 126/4/6 127/4/6
f 126/4/6 118/4/6 128/4/6
f 127/4/6 126/4/6 128/4/6
f 129/4/6 130/4/6 131/4/6
f 131/4/6 130/4/6 132/4/6
f 133/3/6 134/3/6 135/3/6
f 135/3/6 134/3/6 136/3/6
f 137/3/6 138/3/6 140/3/6
f 138/4/6 139/4/6 141/4/6
f 140/3/6 138/3/6 141/3/6
f 141/4/6 139/4/6 142/4/6
